<?xml version="1.0" standalone="no"?>
<!DOCTYPE svg PUBLIC "-//W3C//DTD SVG 20010904//EN"
 "http://www.w3.org/TR/2001/REC-SVG-20010904/DTD/svg10.dtd">
<svg version="1.0" xmlns="http://www.w3.org/2000/svg"
 width="649.000000pt" height="505.000000pt" viewBox="0 0 649.000000 505.000000"
 preserveAspectRatio="xMidYMid meet">

<g transform="translate(0.000000,505.000000) scale(0.100000,-0.100000)"
fill="#000000" stroke="none">
<path d="M0 4690 l0 -360 365 0 365 0 0 -360 0 -360 355 0 355 0 0 360 0 360
1440 0 1440 0 0 360 0 360 -2160 0 -2160 0 0 -360z"/>
<path d="M4330 4685 l0 -355 355 0 355 0 0 355 0 355 -355 0 -355 0 0 -355z
m400 279 c93 -19 151 -167 94 -241 -13 -17 -16 -16 -49 19 -35 38 -47 89 -25
103 6 3 10 21 10 40 0 28 -4 33 -20 32 -15 -1 -20 -9 -21 -32 l-2 -30 -8 35
c-6 27 -7 21 -3 -23 l4 -59 -30 33 c-16 19 -30 44 -30 57 0 20 -4 23 -24 18
-40 -10 -42 22 -3 39 36 16 60 18 107 9z m-133 -76 c20 -19 23 -31 23 -105 0
-93 15 -113 22 -28 3 30 8 58 11 62 14 14 56 -40 59 -75 3 -35 28 -59 28 -28
0 15 2 15 25 0 14 -9 25 -20 25 -25 0 -17 -60 -39 -105 -39 -57 0 -96 19 -132
66 -33 44 -38 124 -10 167 21 33 24 33 54 5z m98 -468 c-9 -27 -21 -53 -27
-57 -7 -4 -9 -1 -6 8 3 8 13 38 24 67 23 67 32 50 9 -18z m-120 0 c0 -41 -4
-60 -12 -60 -9 0 -13 19 -13 60 0 41 4 60 13 60 8 0 12 -19 12 -60z m75 26 c0
-7 -9 -21 -21 -32 l-21 -19 24 -6 c20 -6 18 -7 -10 -8 l-33 -1 20 26 c25 32
27 54 5 54 -8 0 -12 5 -9 10 8 13 45 -6 45 -24z m126 -23 c-1 -35 -3 -38 -31
-40 -25 -2 -26 -1 -7 5 28 8 30 24 6 32 -16 6 -16 7 -1 13 21 8 22 27 1 27 -8
0 -12 5 -9 10 4 7 13 7 24 0 13 -6 18 -20 17 -47z m44 -3 c0 -33 -3 -60 -7
-60 -5 0 -8 27 -8 60 0 33 3 60 8 60 4 0 7 -27 7 -60z"/>
<path d="M5050 4685 l0 -355 355 0 355 0 0 355 0 355 -355 0 -355 0 0 -355z
m400 279 c93 -19 151 -167 94 -241 -13 -17 -16 -16 -49 19 -35 38 -47 89 -25
103 6 3 10 21 10 40 0 28 -4 33 -20 32 -15 -1 -20 -9 -21 -32 l-2 -30 -8 35
c-6 27 -7 21 -3 -23 l4 -59 -30 33 c-16 19 -30 44 -30 57 0 20 -4 23 -24 18
-40 -10 -42 22 -3 39 36 16 60 18 107 9z m-133 -76 c20 -19 23 -31 23 -105 0
-93 15 -113 22 -28 3 30 8 58 11 62 14 14 56 -40 59 -75 3 -35 28 -59 28 -28
0 15 2 15 25 0 14 -9 25 -20 25 -25 0 -17 -60 -39 -105 -39 -57 0 -96 19 -132
66 -33 44 -38 124 -10 167 21 33 24 33 54 5z m-22 -468 c0 -41 -4 -60 -12 -60
-9 0 -13 19 -13 60 0 41 4 60 13 60 8 0 12 -19 12 -60z m127 23 c-6 -15 -16
-41 -22 -57 -6 -16 -13 -27 -15 -24 -3 3 4 31 16 62 12 31 24 54 27 52 2 -3 0
-18 -6 -33z m118 -23 c0 -33 -3 -60 -7 -60 -5 0 -8 27 -8 60 0 33 3 60 8 60 4
0 7 -27 7 -60z m-175 5 c0 -37 -2 -40 -30 -42 -25 -2 -26 -1 -7 5 28 8 30 24
6 32 -16 6 -16 7 -1 13 22 8 22 24 0 31 -11 3 -7 4 7 3 22 -2 25 -6 25 -42z
m130 0 c0 -35 -3 -40 -25 -42 l-25 -3 23 10 c25 11 21 30 -6 30 -16 1 -16 1 1
11 9 5 17 14 17 19 0 5 -8 11 -17 14 -11 3 -7 4 7 3 22 -2 25 -6 25 -42z"/>
<path d="M5770 4685 l0 -355 355 0 355 0 0 355 0 355 -355 0 -355 0 0 -355z
m345 -256 c-25 -71 -25 -72 -30 -67 -4 4 5 38 30 107 3 8 8 12 10 9 3 -3 -2
-25 -10 -49z m-124 -5 c-2 -32 1 -49 10 -55 11 -7 10 -9 -3 -9 -15 0 -18 9
-18 55 0 30 3 55 8 55 4 0 5 -21 3 -46z m80 -15 c6 -3 3 -11 -6 -19 -9 -7 -15
-8 -15 -2 0 6 -9 12 -20 14 -20 3 -20 4 2 38 l23 35 3 -30 c2 -16 8 -33 13
-36z m107 49 c5 -7 9 -26 8 -43 -1 -24 -6 -30 -26 -32 -25 -3 -25 -3 -2 7 12
5 22 12 22 15 0 3 -10 10 -22 15 -18 7 -19 9 -5 9 21 1 23 21 1 21 -8 0 -12 5
-9 10 8 14 20 13 33 -2z m52 -43 c0 -37 -4 -55 -12 -55 -9 0 -13 18 -13 55 0
37 4 55 13 55 8 0 12 -18 12 -55z"/>
<path d="M6036 4425 c-3 -8 -1 -15 4 -15 6 0 10 7 10 15 0 8 -2 15 -4 15 -2 0
-6 -7 -10 -15z"/>
<path d="M21 4306 c-7 -8 -11 -27 -9 -41 l3 -26 40 40 39 41 -31 0 c-17 0 -36
-6 -42 -14z"/>
<path d="M68 4269 c-46 -40 -58 -57 -58 -80 l0 -30 32 38 c18 21 38 41 45 46
7 4 18 14 26 21 8 8 31 24 53 35 l39 21 -40 0 c-34 0 -49 -8 -97 -51z"/>
<path d="M205 4297 c-70 -31 -110 -61 -156 -119 l-39 -50 0 -138 0 -138 39
-49 c35 -45 120 -110 164 -126 12 -5 17 -1 17 12 0 11 -15 25 -40 36 -47 21
-130 107 -149 155 -22 54 -26 155 -7 195 9 18 16 38 16 44 0 21 110 122 155
142 51 22 68 27 137 36 151 19 325 -93 369 -237 6 -20 7 -15 8 22 2 77 -71
161 -186 214 -45 21 -66 24 -165 24 -94 -1 -121 -4 -163 -23z"/>
<path d="M570 4301 c19 -11 61 -44 93 -74 57 -55 57 -55 57 -27 0 42 -97 120
-148 120 l-37 -1 35 -18z"/>
<path d="M676 4286 c35 -31 39 -32 42 -14 6 35 -6 48 -44 48 l-37 0 39 -34z"/>
<path d="M1450 3965 l0 -355 355 0 355 0 0 355 0 355 -355 0 -355 0 0 -355z
m545 105 c3 -5 -1 -10 -10 -10 -9 0 -13 5 -10 10 3 6 8 10 10 10 2 0 7 -4 10
-10z m5 -24 c0 -11 -19 -15 -25 -6 -3 5 1 10 9 10 9 0 16 -2 16 -4z m23 -23
c-7 -2 -9 -11 -6 -19 3 -8 1 -14 -4 -14 -20 0 -22 14 -6 32 9 10 19 15 22 12
3 -4 1 -9 -6 -11z m-43 -17 c0 -2 -7 -6 -15 -10 -8 -3 -15 -1 -15 4 0 6 7 10
15 10 8 0 15 -2 15 -4z m24 -25 c9 -14 -4 -41 -19 -41 -15 0 -28 27 -19 41 3
5 11 9 19 9 8 0 16 -4 19 -9z m4 -148 c-10 -2 -28 -2 -40 0 -13 2 -5 4 17 4
22 1 32 -1 23 -4z m-156 -110 c-6 -15 -16 -41 -22 -57 -6 -16 -13 -27 -15 -24
-4 4 5 38 30 107 3 8 8 11 12 8 3 -4 1 -19 -5 -34z m-171 -19 c-2 -32 1 -49
10 -55 11 -7 10 -9 -3 -9 -15 0 -18 9 -18 55 0 30 3 55 8 55 4 0 5 -21 3 -46z
m109 36 c13 -8 13 -13 -2 -39 -15 -28 -15 -30 0 -34 10 -3 5 -5 -10 -6 -31 -1
-36 10 -13 29 20 16 19 40 -1 40 -8 0 -12 5 -9 10 8 12 16 12 35 0z m120 0
c13 -8 13 -13 -2 -39 -15 -28 -15 -30 0 -34 10 -3 5 -5 -10 -6 -31 -1 -36 10
-13 29 20 16 19 40 -1 40 -8 0 -12 5 -9 10 8 12 16 12 35 0z m50 -45 c0 -37
-4 -55 -12 -55 -9 0 -13 18 -13 55 0 37 4 55 13 55 8 0 12 -18 12 -55z m-223
-1 c-3 -3 -12 -4 -19 -1 -8 3 -5 6 6 6 11 1 17 -2 13 -5z"/>
<path d="M2170 3965 l0 -355 355 0 355 0 0 355 0 355 -355 0 -355 0 0 -355z
m400 279 c93 -19 151 -167 94 -241 -13 -17 -16 -16 -49 19 -35 38 -47 89 -25
103 6 3 10 21 10 40 0 28 -4 33 -20 32 -15 -1 -20 -9 -21 -32 l-2 -30 -8 35
c-6 27 -7 21 -3 -23 l4 -59 -30 33 c-16 19 -30 44 -30 57 0 20 -4 23 -24 18
-40 -10 -42 22 -3 39 36 16 60 18 107 9z m-133 -76 c20 -19 23 -31 23 -105 0
-93 15 -113 22 -28 3 30 8 58 11 62 14 14 56 -40 59 -75 3 -35 28 -59 28 -28
0 15 2 15 25 0 14 -9 25 -20 25 -25 0 -17 -60 -39 -105 -39 -57 0 -96 19 -132
66 -33 44 -38 124 -10 167 21 33 24 33 54 5z m115 -445 c-6 -15 -16 -41 -22
-57 -6 -16 -13 -27 -15 -24 -4 4 5 38 30 107 3 8 8 11 12 8 3 -4 1 -19 -5 -34z
m-171 -19 c-2 -32 1 -49 10 -55 11 -7 10 -9 -3 -9 -15 0 -18 9 -18 55 0 30 3
55 8 55 4 0 5 -21 3 -46z m111 -4 c3 -37 2 -40 -22 -39 -14 0 -19 3 -12 6 6 2
12 18 12 34 0 22 -4 28 -12 23 -9 -5 -9 -3 1 9 19 23 28 14 33 -33z m118 40
c13 -8 13 -13 -2 -39 -15 -28 -15 -30 0 -34 10 -3 5 -5 -10 -6 -31 -1 -36 10
-13 29 20 16 19 40 -1 40 -8 0 -12 5 -9 10 8 12 16 12 35 0z m50 -45 c0 -37
-4 -55 -12 -55 -9 0 -13 18 -13 55 0 37 4 55 13 55 8 0 12 -18 12 -55z m-223
-1 c-3 -3 -12 -4 -19 -1 -8 3 -5 6 6 6 11 1 17 -2 13 -5z"/>
<path d="M2901 4306 c-7 -8 -11 -27 -9 -41 l3 -26 40 40 39 41 -31 0 c-17 0
-36 -6 -42 -14z"/>
<path d="M2948 4269 c-46 -40 -58 -57 -58 -80 l0 -30 32 38 c18 21 38 41 45
46 7 4 18 14 26 21 8 8 31 24 53 35 l39 21 -40 0 c-34 0 -49 -8 -97 -51z"/>
<path d="M3085 4297 c-70 -31 -110 -61 -156 -119 l-39 -50 0 -138 0 -138 39
-49 c35 -45 120 -110 164 -126 12 -5 17 -1 17 12 0 11 -15 25 -40 36 -47 21
-130 107 -149 155 -22 54 -26 155 -7 195 9 18 16 38 16 44 0 21 110 122 155
142 54 24 71 28 146 36 148 15 317 -96 360 -236 6 -21 7 -17 8 21 2 77 -71
161 -186 214 -45 21 -66 24 -165 24 -94 -1 -121 -4 -163 -23z"/>
<path d="M3450 4301 c19 -11 61 -44 93 -74 57 -55 57 -55 57 -27 0 42 -97 120
-148 120 l-37 -1 35 -18z"/>
<path d="M3556 4286 c35 -31 39 -32 42 -14 6 35 -6 48 -44 48 l-37 0 39 -34z"/>
<path d="M3610 3965 l0 -355 355 0 355 0 0 355 0 355 -355 0 -355 0 0 -355z
m400 279 c93 -19 151 -167 94 -241 -13 -17 -16 -16 -49 19 -35 38 -47 89 -25
103 6 3 10 21 10 40 0 28 -4 33 -20 32 -15 -1 -20 -9 -21 -32 l-2 -30 -8 35
c-6 27 -7 21 -3 -23 l4 -59 -30 33 c-16 19 -30 44 -30 57 0 20 -4 23 -24 18
-40 -10 -42 22 -3 39 36 16 60 18 107 9z m-133 -76 c20 -19 23 -31 23 -105 0
-93 15 -113 22 -28 3 30 8 58 11 62 14 14 56 -40 59 -75 3 -35 28 -59 28 -28
0 15 2 15 25 0 14 -9 25 -20 25 -25 0 -17 -60 -39 -105 -39 -57 0 -96 19 -132
66 -33 44 -38 124 -10 167 21 33 24 33 54 5z m88 -459 c-25 -71 -25 -72 -30
-67 -4 4 5 38 30 107 3 8 8 12 10 9 3 -3 -2 -25 -10 -49z m-124 -5 c-2 -32 1
-49 10 -55 11 -7 10 -9 -3 -9 -15 0 -18 9 -18 55 0 30 3 55 8 55 4 0 5 -21 3
-46z m71 -4 c3 -37 2 -40 -22 -39 -14 0 -19 3 -12 6 6 2 12 18 12 34 0 22 -4
28 -12 23 -9 -5 -9 -3 1 9 19 23 28 14 33 -33z m118 35 c10 -12 9 -20 -4 -39
-14 -23 -14 -25 2 -29 10 -3 6 -5 -10 -6 -31 -1 -36 10 -13 29 20 16 19 40 -1
40 -8 0 -12 5 -9 10 9 14 21 12 35 -5z m50 -40 c0 -37 -4 -55 -12 -55 -9 0
-13 18 -13 55 0 37 4 55 13 55 8 0 12 -18 12 -55z"/>
<path d="M4330 3965 l0 -355 355 0 355 0 0 355 0 355 -355 0 -355 0 0 -355z
m355 -256 c-25 -71 -25 -72 -30 -67 -4 4 5 38 30 107 3 8 8 12 10 9 3 -3 -2
-25 -10 -49z m-124 -5 c-2 -32 1 -49 10 -55 11 -7 10 -9 -3 -9 -15 0 -18 9
-18 55 0 30 3 55 8 55 4 0 5 -21 3 -46z m69 36 c13 -8 13 -13 -2 -39 -15 -28
-15 -30 0 -34 10 -3 5 -5 -10 -6 -31 -1 -36 10 -13 29 20 16 19 40 -1 40 -8 0
-12 5 -9 10 8 12 16 12 35 0z m120 -5 c10 -12 9 -20 -4 -39 -14 -23 -14 -25 2
-29 10 -3 6 -5 -10 -6 -31 -1 -36 10 -13 29 20 16 19 40 -1 40 -8 0 -12 5 -9
10 9 14 21 12 35 -5z m50 -40 c0 -37 -4 -55 -12 -55 -9 0 -13 18 -13 55 0 37
4 55 13 55 8 0 12 -18 12 -55z"/>
<path d="M5050 3965 l0 -355 355 0 355 0 0 355 0 355 -355 0 -355 0 0 -355z
m355 -256 c-25 -71 -25 -72 -30 -67 -4 4 5 38 30 107 3 8 8 12 10 9 3 -3 -2
-25 -10 -49z m-124 -5 c-2 -32 1 -49 10 -55 11 -7 10 -9 -3 -9 -15 0 -18 9
-18 55 0 30 3 55 8 55 4 0 5 -21 3 -46z m66 38 c6 -4 11 -23 10 -42 -2 -29 -6
-35 -27 -37 l-25 -3 25 11 c24 10 24 11 6 25 -11 8 -14 14 -8 14 7 0 12 5 12
10 0 6 -7 10 -16 10 -8 0 -12 5 -9 10 7 12 16 12 32 2z m123 -7 c10 -12 9 -20
-4 -39 -14 -23 -14 -25 2 -29 10 -3 6 -5 -10 -6 -31 -1 -36 10 -13 29 20 16
19 40 -1 40 -8 0 -12 5 -9 10 9 14 21 12 35 -5z m50 -40 c0 -37 -4 -55 -12
-55 -9 0 -13 18 -13 55 0 37 4 55 13 55 8 0 12 -18 12 -55z"/>
<path d="M5770 3965 l0 -355 355 0 355 0 0 355 0 355 -355 0 -355 0 0 -355z
m451 255 c51 -37 78 -116 60 -175 -8 -25 -9 -26 -10 -7 -1 19 -6 22 -46 22
-43 0 -45 1 -45 29 0 17 5 33 10 36 6 3 10 21 10 40 0 28 -4 33 -20 32 -15 -1
-20 -9 -21 -32 l-2 -30 -8 35 c-6 27 -7 21 -3 -23 l4 -59 -30 33 c-16 19 -30
44 -30 57 0 20 -4 23 -24 18 -40 -10 -42 22 -3 40 42 19 119 11 158 -16z
m-184 -52 c18 -17 23 -32 23 -70 0 -46 -2 -48 -40 -68 -38 -20 -41 -20 -48 -3
-12 32 -6 110 11 137 21 32 25 32 54 4z m88 -88 c18 -20 17 -20 -13 -20 -25 0
-29 3 -25 20 3 11 9 20 13 20 4 0 15 -9 25 -20z m25 -55 c0 -19 -5 -25 -20
-25 -12 0 -27 5 -34 12 -17 16 1 37 32 38 17 0 22 -6 22 -25z m80 21 c0 -9
-30 -14 -35 -6 -4 6 3 10 14 10 12 0 21 -2 21 -4z m26 -53 c-3 -3 -13 0 -22 8
-14 12 -14 14 3 27 16 11 18 11 21 -8 2 -12 1 -24 -2 -27z m-196 22 c0 -10
-10 -15 -27 -15 l-28 1 25 14 c31 18 30 18 30 0z m151 -25 c10 -6 19 -15 19
-20 0 -9 -51 -40 -65 -40 -10 0 -5 41 8 55 15 17 14 17 38 5z m-61 -32 c0 -25
-3 -28 -35 -28 -38 0 -83 19 -104 43 -10 13 -1 15 64 14 l75 0 0 -29z m-35
-249 c-25 -71 -25 -72 -30 -67 -4 4 5 38 30 107 3 8 8 12 10 9 3 -3 -2 -25
-10 -49z m-124 -5 c-2 -32 1 -49 10 -55 11 -7 10 -9 -3 -9 -15 0 -18 9 -18 55
0 30 3 55 8 55 4 0 5 -21 3 -46z m80 -15 c6 -3 3 -11 -6 -19 -9 -7 -15 -8 -15
-2 0 6 -9 12 -20 14 -20 3 -20 4 2 38 l23 35 3 -30 c2 -16 8 -33 13 -36z m109
46 c10 -12 9 -20 -4 -39 -14 -23 -14 -25 2 -29 10 -3 6 -5 -10 -6 -31 -1 -36
10 -13 29 20 16 19 40 -1 40 -8 0 -12 5 -9 10 9 14 21 12 35 -5z m50 -40 c0
-37 -4 -55 -12 -55 -9 0 -13 18 -13 55 0 37 4 55 13 55 8 0 12 -18 12 -55z"/>
<path d="M6080 3960 c0 -5 5 -10 10 -10 6 0 10 5 10 10 0 6 -4 10 -10 10 -5 0
-10 -4 -10 -10z"/>
<path d="M6036 3705 c-3 -8 -1 -15 4 -15 6 0 10 7 10 15 0 8 -2 15 -4 15 -2 0
-6 -7 -10 -15z"/>
<path d="M246 4260 c-99 -38 -161 -97 -190 -183 -35 -103 -11 -200 68 -274 28
-27 63 -54 79 -60 24 -11 27 -11 27 7 0 11 -7 20 -15 20 -23 0 -116 103 -131
146 -18 51 -17 90 2 146 20 60 71 118 129 148 59 30 64 31 157 33 42 1 80 6
84 10 31 31 -133 36 -210 7z"/>
<path d="M3126 4260 c-99 -38 -161 -97 -190 -183 -35 -103 -11 -200 68 -274
28 -27 63 -54 79 -60 24 -11 27 -11 27 7 0 11 -7 20 -15 20 -23 0 -116 103
-131 146 -27 77 -8 162 50 230 123 143 383 130 486 -25 35 -53 44 -90 38 -175
-5 -77 -45 -146 -113 -195 -40 -28 -60 -61 -37 -61 10 0 84 50 102 69 30 32
67 97 83 150 16 50 16 57 0 125 -9 39 -21 73 -25 74 -4 2 -8 9 -8 15 -1 16
-47 66 -92 100 -72 55 -227 73 -322 37z"/>
<path d="M470 4250 c0 -5 9 -14 20 -20 17 -9 20 -8 20 10 0 13 -7 20 -20 20
-11 0 -20 -4 -20 -10z"/>
<path d="M530 4231 c0 -5 7 -11 15 -15 8 -3 14 -9 13 -14 -2 -4 12 -24 31 -42
50 -51 71 -103 71 -184 0 -81 -23 -138 -76 -192 -32 -31 -45 -64 -26 -64 14 0
67 53 93 95 14 22 33 64 42 94 16 50 16 57 0 125 -9 39 -21 73 -25 74 -4 2 -8
9 -8 15 -1 22 -99 117 -121 117 -5 0 -9 -4 -9 -9z"/>
<path d="M240 4199 c-108 -59 -140 -106 -140 -202 0 -80 18 -123 69 -170 50
-45 63 -52 133 -67 206 -46 372 186 242 338 -61 72 -150 100 -234 74 -103 -31
-160 -97 -160 -185 0 -58 49 -132 105 -161 62 -32 139 -28 194 9 88 59 113
152 60 224 -75 104 -213 100 -286 -8 -37 -54 -26 -107 32 -161 23 -22 36 -25
97 -25 66 0 71 2 99 32 38 44 46 77 25 120 -11 24 -30 40 -61 54 -53 23 -83
18 -125 -21 -51 -48 -34 -117 34 -140 81 -26 144 59 80 109 -33 26 -37 26 -69
-2 -18 -15 -24 -28 -20 -40 9 -21 45 -23 45 -2 0 8 7 15 15 15 25 0 18 -39 -9
-46 -36 -9 -66 12 -66 46 0 58 76 80 124 35 29 -27 31 -38 16 -82 -13 -35 -46
-53 -99 -53 -32 0 -45 6 -70 35 -42 48 -42 92 1 133 56 56 163 50 203 -11 47
-72 34 -134 -39 -180 -73 -46 -165 -31 -221 35 -20 24 -25 40 -25 86 0 62 21
95 85 137 47 31 148 27 201 -7 85 -55 106 -159 47 -241 -103 -145 -342 -100
-387 73 -9 35 -11 61 -5 72 5 9 9 24 9 33 0 24 68 93 114 117 22 11 65 23 96
25 99 9 177 -30 231 -115 38 -60 40 -134 5 -207 -27 -58 -45 -75 -103 -100
-39 -17 -61 -41 -48 -53 2 -3 15 0 27 6 21 10 22 11 3 11 -16 1 -17 3 -5 10 8
6 18 7 23 4 27 -16 100 38 131 97 28 54 37 120 25 174 -12 56 -52 123 -84 140
-11 6 -23 16 -27 22 -4 6 -18 9 -32 7 -17 -4 -27 1 -35 16 -10 19 -21 21 -89
21 -67 0 -84 -4 -132 -31z"/>
<path d="M3120 4199 c-108 -59 -140 -106 -140 -202 0 -80 18 -123 69 -170 49
-44 63 -51 129 -67 101 -24 224 31 269 121 65 128 -11 265 -167 300 -43 10
-130 -14 -178 -50 -44 -32 -72 -89 -72 -144 0 -58 49 -132 105 -161 62 -32
139 -28 194 9 88 59 113 152 60 224 -75 104 -213 100 -286 -8 -37 -54 -26
-107 32 -161 23 -22 36 -25 97 -25 66 0 71 2 99 32 38 44 46 77 25 120 -11 24
-30 40 -61 54 -53 23 -83 18 -125 -21 -51 -48 -34 -117 34 -140 81 -26 144 59
80 109 -33 26 -37 26 -69 -2 -18 -15 -24 -28 -20 -40 9 -21 45 -23 45 -2 0 8
7 15 15 15 25 0 18 -39 -9 -46 -36 -9 -66 12 -66 46 0 58 76 80 124 35 29 -27
31 -38 16 -82 -13 -35 -46 -53 -99 -53 -32 0 -45 6 -70 35 -42 48 -42 92 1
133 56 56 163 50 203 -11 47 -72 34 -134 -39 -180 -73 -46 -165 -31 -221 35
-20 24 -25 40 -25 86 0 62 21 95 85 137 47 31 148 27 201 -7 85 -55 106 -159
47 -241 -103 -145 -342 -100 -387 73 -9 35 -11 61 -5 72 5 9 9 24 9 33 0 24
68 93 114 117 22 11 65 23 96 25 99 9 177 -30 231 -115 38 -60 40 -134 5 -207
-27 -58 -45 -75 -104 -101 -36 -15 -40 -20 -28 -32 15 -15 41 -7 30 9 -3 6 4
7 18 4 19 -5 32 2 62 32 68 69 95 156 75 239 -33 131 -130 204 -271 204 -62 0
-81 -5 -128 -31z"/>
<path d="M712 3906 c-2 -31 -48 -117 -81 -153 -11 -12 -34 -30 -51 -39 -19
-12 -30 -26 -30 -41 l0 -22 34 20 c44 25 124 113 132 143 3 12 4 45 1 72 -2
27 -4 36 -5 20z"/>
<path d="M3592 3906 c-2 -33 -51 -122 -86 -157 -13 -13 -47 -37 -75 -54 -28
-16 -51 -36 -51 -42 0 -7 -5 -13 -11 -13 -5 0 -7 5 -3 12 5 8 2 9 -12 3 -10
-4 -69 -9 -131 -11 -88 -2 -114 0 -124 12 -6 8 -18 14 -25 14 -24 0 -97 51
-141 99 -41 43 -43 44 -43 20 0 -39 63 -100 152 -146 50 -25 61 -27 183 -27
102 -1 136 3 160 15 17 9 47 25 68 35 45 22 134 115 143 148 3 12 4 45 1 72
-2 27 -4 36 -5 20z"/>
<path d="M10 3789 c0 -39 63 -100 152 -146 50 -25 61 -27 183 -27 109 -1 135
2 158 17 15 9 27 25 27 33 0 12 -3 14 -12 6 -37 -30 -277 -42 -300 -15 -6 7
-17 13 -24 13 -24 0 -97 51 -141 99 -41 43 -43 44 -43 20z"/>
<path d="M686 3742 c-29 -43 -59 -65 -144 -108 l-47 -24 43 0 c75 0 187 91
180 147 -3 26 -3 26 -32 -15z"/>
<path d="M3566 3742 c-29 -43 -59 -65 -144 -108 l-47 -24 43 0 c75 0 187 91
180 147 -3 26 -3 26 -32 -15z"/>
<path d="M250 3737 c0 -28 73 -39 84 -12 4 11 -2 15 -23 15 -16 0 -36 3 -45 6
-10 4 -16 1 -16 -9z"/>
<path d="M3130 3735 c0 -8 5 -15 10 -15 6 0 10 7 10 15 0 8 -4 15 -10 15 -5 0
-10 -7 -10 -15z"/>
<path d="M10 3709 c0 -20 8 -34 28 -46 15 -10 32 -24 38 -32 6 -7 35 -16 65
-18 l54 -4 -50 25 c-27 14 -69 43 -92 64 l-43 40 0 -29z"/>
<path d="M370 3725 c0 -8 9 -15 19 -15 10 0 21 7 25 15 4 11 -1 15 -19 15 -16
0 -25 -6 -25 -15z"/>
<path d="M495 3704 l-27 -36 31 16 c19 10 31 24 31 36 0 27 -3 26 -35 -16z"/>
<path d="M2890 3709 c0 -20 8 -34 28 -46 15 -10 32 -24 38 -32 6 -7 35 -16 65
-18 l54 -4 -50 25 c-27 14 -69 43 -92 64 l-43 40 0 -29z"/>
<path d="M3170 3726 c0 -9 7 -16 16 -16 9 0 14 5 12 12 -6 18 -28 21 -28 4z"/>
<path d="M3210 3733 c0 -5 5 -15 10 -23 9 -13 11 -13 20 0 15 22 12 30 -10 30
-11 0 -20 -3 -20 -7z"/>
<path d="M3265 3729 c-4 -6 -5 -13 -1 -16 8 -8 56 6 56 17 0 13 -47 13 -55 -1z"/>
<path d="M438 3698 c-16 -5 -28 -16 -28 -24 0 -22 24 -17 50 11 25 27 21 29
-22 13z"/>
<path d="M3328 3699 c-27 -15 -21 -31 9 -27 17 2 29 10 31 21 4 19 -14 22 -40
6z"/>
<path d="M252 3681 c2 -11 20 -19 61 -25 49 -8 61 -7 74 7 9 9 13 20 9 24 -4
4 -14 -1 -22 -12 -10 -13 -17 -16 -22 -9 -4 6 -29 16 -55 22 -42 9 -48 8 -45
-7z"/>
<path d="M3130 3688 c0 -9 5 -20 11 -23 17 -11 20 0 4 21 -13 17 -14 17 -15 2z"/>
<path d="M3170 3685 c0 -16 16 -20 24 -6 3 5 -1 11 -9 15 -9 3 -15 0 -15 -9z"/>
<path d="M3270 3693 c-16 -6 -30 -23 -30 -35 0 -15 27 -8 43 10 27 29 22 38
-13 25z"/>
<path d="M667 3648 l-49 -38 52 2 c28 1 47 4 41 6 -8 3 -8 9 0 23 23 43 4 46
-44 7z"/>
<path d="M3202 3669 c-12 -18 -11 -20 5 -17 10 2 19 11 21 21 5 23 -10 21 -26
-4z"/>
<path d="M3547 3648 l-49 -38 52 2 c28 1 47 4 41 6 -8 3 -8 9 0 23 23 43 4 46
-44 7z"/>
<path d="M12 3640 c2 -19 10 -26 32 -28 31 -4 28 1 -17 38 -17 13 -19 12 -15
-10z"/>
<path d="M2892 3640 c2 -19 10 -26 32 -28 31 -4 28 1 -17 38 -17 13 -19 12
-15 -10z"/>
<path d="M10 3245 l0 -355 355 0 355 0 0 355 0 355 -355 0 -355 0 0 -355z
m504 309 c9 -3 16 -15 16 -26 0 -12 8 -27 18 -34 16 -12 15 -13 -4 -8 -12 3
-25 1 -28 -5 -12 -19 -46 -12 -57 13 -20 43 11 77 55 60z m41 -94 c3 -5 -1
-10 -10 -10 -9 0 -13 5 -10 10 3 6 8 10 10 10 2 0 7 -4 10 -10z m0 -110 c3 -5
-1 -10 -10 -10 -9 0 -13 5 -10 10 3 6 8 10 10 10 2 0 7 -4 10 -10z m5 -24 c0
-11 -19 -15 -25 -6 -3 5 1 10 9 10 9 0 16 -2 16 -4z m23 -23 c-7 -2 -9 -11 -6
-19 3 -8 1 -14 -4 -14 -20 0 -22 14 -6 32 9 10 19 15 22 12 3 -4 1 -9 -6 -11z
m-43 -17 c0 -2 -7 -6 -15 -10 -8 -3 -15 -1 -15 4 0 6 7 10 15 10 8 0 15 -2 15
-4z m24 -25 c9 -14 -4 -41 -19 -41 -15 0 -28 27 -19 41 3 5 11 9 19 9 8 0 16
-4 19 -9z m4 -148 c-10 -2 -28 -2 -40 0 -13 2 -5 4 17 4 22 1 32 -1 23 -4z
m-156 -110 c-6 -15 -16 -41 -22 -57 -6 -16 -13 -27 -15 -24 -4 4 5 38 30 107
3 8 8 11 12 8 3 -4 1 -19 -5 -34z m-171 -19 c-2 -32 1 -49 10 -55 11 -7 10 -9
-3 -9 -15 0 -18 9 -18 55 0 30 3 55 8 55 4 0 5 -21 3 -46z m121 6 c5 -33 -7
-62 -19 -44 -5 5 -24 15 -43 22 -19 6 -26 10 -15 9 13 -2 26 8 38 26 20 33 33
29 39 -13z m110 -10 c3 -37 2 -40 -22 -39 -14 0 -19 3 -12 6 6 2 12 18 12 34
0 22 -4 28 -12 23 -9 -5 -9 -3 1 9 19 23 28 14 33 -33z m48 -5 c0 -37 -4 -55
-12 -55 -9 0 -13 18 -13 55 0 37 4 55 13 55 8 0 12 -18 12 -55z"/>
<path d="M474 3536 c-9 -23 0 -51 16 -51 10 0 15 10 15 29 0 32 -21 47 -31 22z"/>
<path d="M326 2985 c-3 -8 -1 -15 4 -15 6 0 10 7 10 15 0 8 -2 15 -4 15 -2 0
-6 -7 -10 -15z"/>
<path d="M730 3245 l0 -355 355 0 355 0 0 355 0 355 -355 0 -355 0 0 -355z
m504 309 c9 -3 16 -15 16 -26 0 -12 8 -27 18 -34 16 -12 15 -13 -4 -8 -12 3
-25 1 -28 -5 -12 -19 -46 -12 -57 13 -20 43 11 77 55 60z m41 -94 c3 -5 -1
-10 -10 -10 -9 0 -13 5 -10 10 3 6 8 10 10 10 2 0 7 -4 10 -10z m-319 -241 c3
-5 14 -9 25 -9 44 0 11 -41 -35 -44 -37 -1 -49 9 -18 17 9 3 2 5 -15 6 -28 1
-32 5 -31 24 2 19 7 22 35 19 18 -2 36 -8 39 -13z m-91 -8 c-3 -6 -14 -11 -23
-11 -13 0 -13 2 4 14 21 15 30 14 19 -3z m155 -31 c0 -5 -5 -10 -11 -10 -5 0
-7 5 -4 10 3 6 8 10 11 10 2 0 4 -4 4 -10z m170 1 c35 -2 43 -17 25 -44 -18
-28 -51 -46 -42 -23 4 9 -3 16 -16 19 -12 2 -31 8 -42 12 -16 5 -17 5 -5 -4
13 -9 13 -11 -1 -11 -26 0 -42 25 -26 41 12 12 32 14 107 10z m77 -41 c-11
-30 -27 -41 -27 -18 0 10 28 48 36 48 1 0 -3 -13 -9 -30z m91 -34 c14 -13 9
-14 -60 -8 -10 1 -18 9 -18 18 0 13 7 15 32 10 18 -4 39 -12 46 -20z m-288 -6
c0 -5 -7 -7 -15 -4 -8 4 -15 8 -15 10 0 2 7 4 15 4 8 0 15 -4 15 -10z m62 -97
c-6 -15 -16 -41 -22 -57 -6 -16 -13 -27 -15 -24 -4 4 5 38 30 107 3 8 8 11 12
8 3 -4 1 -19 -5 -34z m-171 -19 c-2 -32 1 -49 10 -55 11 -7 10 -9 -3 -9 -15 0
-18 9 -18 55 0 30 3 55 8 55 4 0 5 -21 3 -46z m106 38 c6 -4 11 -23 10 -42 -2
-30 -6 -35 -27 -37 -22 -1 -22 -1 -2 4 26 5 28 18 5 32 -10 6 -12 11 -5 11 18
0 15 20 -4 20 -8 0 -12 5 -9 10 7 12 16 12 32 2z m125 -42 c3 -37 2 -40 -22
-39 -14 0 -19 3 -12 6 6 2 12 18 12 34 0 22 -4 28 -12 23 -9 -5 -9 -3 1 9 19
23 28 14 33 -33z m48 -5 c0 -37 -4 -55 -12 -55 -9 0 -13 18 -13 55 0 37 4 55
13 55 8 0 12 -18 12 -55z m-223 -1 c-3 -3 -12 -4 -19 -1 -8 3 -5 6 6 6 11 1
17 -2 13 -5z"/>
<path d="M1194 3536 c-9 -23 0 -51 16 -51 10 0 15 10 15 29 0 32 -21 47 -31
22z"/>
<path d="M1450 3130 l0 -470 345 0 345 0 0 -245 c0 -157 4 -245 10 -245 7 0
10 245 10 715 l0 715 -355 0 -355 0 0 -470z"/>
<path d="M2170 3245 l0 -355 355 0 355 0 0 355 0 355 -355 0 -355 0 0 -355z
m226 -26 c3 -5 14 -9 25 -9 44 0 11 -41 -35 -44 -37 -1 -49 9 -18 17 9 3 2 5
-15 6 -28 1 -32 5 -31 24 2 19 7 22 35 19 18 -2 36 -8 39 -13z m-91 -8 c-3 -6
-14 -11 -23 -11 -13 0 -13 2 4 14 21 15 30 14 19 -3z m155 -31 c0 -5 -5 -10
-11 -10 -5 0 -7 5 -4 10 3 6 8 10 11 10 2 0 4 -4 4 -10z m170 1 c35 -2 43 -17
25 -44 -18 -28 -51 -46 -42 -23 4 9 -3 16 -16 19 -12 2 -31 8 -42 12 -16 5
-17 5 -5 -4 13 -9 13 -11 -1 -11 -26 0 -42 25 -26 41 12 12 32 14 107 10z m77
-41 c-11 -30 -27 -41 -27 -18 0 10 28 48 36 48 1 0 -3 -13 -9 -30z m91 -34
c14 -13 9 -14 -60 -8 -10 1 -18 9 -18 18 0 13 7 15 32 10 18 -4 39 -12 46 -20z
m-288 -6 c0 -5 -7 -7 -15 -4 -8 4 -15 8 -15 10 0 2 7 4 15 4 8 0 15 -4 15 -10z
m62 -97 c-6 -15 -16 -41 -22 -57 -6 -16 -13 -27 -15 -24 -4 4 5 38 30 107 3 8
8 11 12 8 3 -4 1 -19 -5 -34z m-171 -19 c-2 -32 1 -49 10 -55 11 -7 10 -9 -3
-9 -15 0 -18 9 -18 55 0 30 3 55 8 55 4 0 5 -21 3 -46z m111 -4 c3 -37 2 -40
-22 -39 -14 0 -19 3 -12 6 6 2 12 18 12 34 0 22 -4 28 -12 23 -9 -5 -9 -3 1 9
19 23 28 14 33 -33z m131 21 c7 -27 -11 -61 -32 -61 -23 0 -34 25 -25 54 12
38 47 43 57 7z m37 -26 c0 -37 -4 -55 -12 -55 -9 0 -13 18 -13 55 0 37 4 55
13 55 8 0 12 -18 12 -55z m-223 -1 c-3 -3 -12 -4 -19 -1 -8 3 -5 6 6 6 11 1
17 -2 13 -5z"/>
<path d="M2600 2980 c0 -20 5 -30 15 -30 10 0 15 10 15 30 0 20 -5 30 -15 30
-10 0 -15 -10 -15 -30z"/>
<path d="M2890 3245 l0 -355 355 0 355 0 0 355 0 355 -355 0 -355 0 0 -355z
m355 -256 c-25 -71 -25 -72 -30 -67 -4 4 5 38 30 107 3 8 8 12 10 9 3 -3 -2
-25 -10 -49z m-124 -5 c-2 -32 1 -49 10 -55 11 -7 10 -9 -3 -9 -15 0 -18 9
-18 55 0 30 3 55 8 55 4 0 5 -21 3 -46z m79 20 c12 -32 -3 -64 -30 -64 -40 0
-27 89 13 90 4 0 12 -12 17 -26z m113 -56 c7 -4 -1 -7 -18 -7 -16 0 -24 3 -17
6 6 2 12 18 12 34 0 22 -4 28 -12 23 -8 -5 -7 0 2 11 14 17 15 16 18 -21 2
-21 9 -42 15 -46z m47 27 c0 -37 -4 -55 -12 -55 -9 0 -13 18 -13 55 0 37 4 55
13 55 8 0 12 -18 12 -55z"/>
<path d="M3160 2980 c0 -20 5 -30 15 -30 10 0 15 10 15 30 0 20 -5 30 -15 30
-10 0 -15 -10 -15 -30z"/>
<path d="M3610 3245 l0 -355 355 0 355 0 0 355 0 355 -355 0 -355 0 0 -355z
m355 -256 c-25 -71 -25 -72 -30 -67 -4 4 5 38 30 107 3 8 8 12 10 9 3 -3 -2
-25 -10 -49z m-124 -5 c-2 -32 1 -49 10 -55 11 -7 10 -9 -3 -9 -15 0 -18 9
-18 55 0 30 3 55 8 55 4 0 5 -21 3 -46z m71 -4 c3 -37 2 -40 -22 -39 -14 0
-19 3 -12 6 6 2 12 18 12 34 0 22 -4 28 -12 23 -9 -5 -9 -3 1 9 19 23 28 14
33 -33z m121 -32 c7 -4 -1 -7 -18 -7 -16 0 -24 3 -17 6 6 2 12 18 12 34 0 22
-4 28 -12 23 -8 -5 -7 0 2 11 14 17 15 16 18 -21 2 -21 9 -42 15 -46z m47 27
c0 -37 -4 -55 -12 -55 -9 0 -13 18 -13 55 0 37 4 55 13 55 8 0 12 -18 12 -55z"/>
<path d="M4330 3245 l0 -355 355 0 355 0 0 355 0 355 -355 0 -355 0 0 -355z
m355 -256 c-25 -71 -25 -72 -30 -67 -4 4 5 38 30 107 3 8 8 12 10 9 3 -3 -2
-25 -10 -49z m-124 -5 c-2 -32 1 -49 10 -55 11 -7 10 -9 -3 -9 -15 0 -18 9
-18 55 0 30 3 55 8 55 4 0 5 -21 3 -46z m69 36 c13 -8 13 -13 -2 -39 -15 -28
-15 -30 0 -34 10 -3 5 -5 -10 -6 -31 -1 -36 10 -13 29 20 16 19 40 -1 40 -8 0
-12 5 -9 10 8 12 16 12 35 0z m123 -72 c7 -4 -1 -7 -18 -7 -16 0 -24 3 -17 6
6 2 12 18 12 34 0 22 -4 28 -12 23 -8 -5 -7 0 2 11 14 17 15 16 18 -21 2 -21
9 -42 15 -46z m47 27 c0 -37 -4 -55 -12 -55 -9 0 -13 18 -13 55 0 37 4 55 13
55 8 0 12 -18 12 -55z"/>
<path d="M5050 3245 l0 -355 355 0 355 0 0 355 0 355 -355 0 -355 0 0 -355z
m400 279 c93 -19 151 -167 94 -241 -13 -17 -16 -16 -49 19 -35 38 -47 89 -25
103 6 3 10 21 10 40 0 28 -4 33 -20 32 -15 -1 -20 -9 -21 -32 l-2 -30 -8 35
c-6 27 -7 21 -3 -23 l4 -59 -30 33 c-16 19 -30 44 -30 57 0 20 -4 23 -24 18
-40 -10 -42 22 -3 39 36 16 60 18 107 9z m-133 -76 c20 -19 23 -31 23 -105 0
-93 15 -113 22 -28 3 30 8 58 11 62 14 14 56 -40 59 -75 3 -35 28 -59 28 -28
0 15 2 15 25 0 14 -9 25 -20 25 -25 0 -17 -60 -39 -105 -39 -57 0 -96 19 -132
66 -33 44 -38 124 -10 167 21 33 24 33 54 5z m88 -459 c-25 -71 -25 -72 -30
-67 -4 4 5 38 30 107 3 8 8 12 10 9 3 -3 -2 -25 -10 -49z m-124 -5 c-2 -32 1
-49 10 -55 11 -7 10 -9 -3 -9 -15 0 -18 9 -18 55 0 30 3 55 8 55 4 0 5 -21 3
-46z m66 38 c6 -4 11 -23 10 -42 -2 -29 -6 -35 -27 -37 l-25 -3 25 11 c24 10
24 11 6 25 -11 8 -14 14 -8 14 7 0 12 5 12 10 0 6 -7 10 -16 10 -8 0 -12 5 -9
10 7 12 16 12 32 2z m126 -74 c7 -4 -1 -7 -18 -7 -16 0 -24 3 -17 6 6 2 12 18
12 34 0 22 -4 28 -12 23 -8 -5 -7 0 2 11 14 17 15 16 18 -21 2 -21 9 -42 15
-46z m47 27 c0 -37 -4 -55 -12 -55 -9 0 -13 18 -13 55 0 37 4 55 13 55 8 0 12
-18 12 -55z"/>
<path d="M5770 3245 l0 -355 355 0 355 0 0 355 0 355 -355 0 -355 0 0 -355z
m355 -256 c-25 -71 -25 -72 -30 -67 -4 4 5 38 30 107 3 8 8 12 10 9 3 -3 -2
-25 -10 -49z m-124 -5 c-2 -32 1 -49 10 -55 11 -7 10 -9 -3 -9 -15 0 -18 9
-18 55 0 30 3 55 8 55 4 0 5 -21 3 -46z m80 -15 c6 -3 3 -11 -6 -19 -9 -7 -15
-8 -15 -2 0 6 -9 12 -20 14 -20 3 -20 4 2 38 l23 35 3 -30 c2 -16 8 -33 13
-36z m112 -21 c7 -4 -1 -7 -18 -7 -16 0 -24 3 -17 6 6 2 12 18 12 34 0 22 -4
28 -12 23 -8 -5 -7 0 2 11 14 17 15 16 18 -21 2 -21 9 -42 15 -46z m47 27 c0
-37 -4 -55 -12 -55 -9 0 -13 18 -13 55 0 37 4 55 13 55 8 0 12 -18 12 -55z"/>
<path d="M6046 2985 c-3 -8 -1 -15 4 -15 6 0 10 7 10 15 0 8 -2 15 -4 15 -2 0
-6 -7 -10 -15z"/>
<path d="M10 2525 l0 -355 355 0 355 0 0 355 0 355 -355 0 -355 0 0 -355z
m402 -242 c-6 -15 -16 -41 -22 -57 -6 -16 -13 -27 -15 -24 -4 4 5 38 30 107 3
8 8 11 12 8 3 -4 1 -19 -5 -34z m-171 -19 c-2 -32 1 -49 10 -55 11 -7 10 -9
-3 -9 -15 0 -18 9 -18 55 0 30 3 55 8 55 4 0 5 -21 3 -46z m121 6 c5 -33 -7
-62 -19 -44 -5 5 -24 15 -43 22 -19 6 -26 10 -15 9 13 -2 26 8 38 26 20 33 33
29 39 -13z m121 11 c7 -27 -11 -61 -32 -61 -23 0 -34 25 -25 54 12 38 47 43
57 7z m37 -26 c0 -37 -4 -55 -12 -55 -9 0 -13 18 -13 55 0 37 4 55 13 55 8 0
12 -18 12 -55z"/>
<path d="M326 2265 c-3 -8 -1 -15 4 -15 6 0 10 7 10 15 0 8 -2 15 -4 15 -2 0
-6 -7 -10 -15z"/>
<path d="M440 2260 c0 -20 5 -30 15 -30 10 0 15 10 15 30 0 20 -5 30 -15 30
-10 0 -15 -10 -15 -30z"/>
<path d="M730 2525 l0 -355 355 0 355 0 0 355 0 355 -355 0 -355 0 0 -355z
m402 -242 c-6 -15 -16 -41 -22 -57 -6 -16 -13 -27 -15 -24 -4 4 5 38 30 107 3
8 8 11 12 8 3 -4 1 -19 -5 -34z m-171 -19 c-2 -32 1 -49 10 -55 11 -7 10 -9
-3 -9 -15 0 -18 9 -18 55 0 30 3 55 8 55 4 0 5 -21 3 -46z m106 38 c6 -4 11
-23 10 -42 -2 -30 -6 -35 -27 -37 -22 -1 -22 -1 -2 4 26 5 28 18 5 32 -10 6
-12 11 -5 11 18 0 15 20 -4 20 -8 0 -12 5 -9 10 7 12 16 12 32 2z m133 -18
c12 -31 -3 -64 -29 -64 -44 0 -32 89 12 90 4 0 12 -12 17 -26z m40 -29 c0 -37
-4 -55 -12 -55 -9 0 -13 18 -13 55 0 37 4 55 13 55 8 0 12 -18 12 -55z m-223
-1 c-3 -3 -12 -4 -19 -1 -8 3 -5 6 6 6 11 1 17 -2 13 -5z"/>
<path d="M1160 2260 c0 -20 5 -30 15 -30 10 0 15 10 15 30 0 20 -5 30 -15 30
-10 0 -15 -10 -15 -30z"/>
<path d="M2170 2525 l0 -355 355 0 355 0 0 355 0 355 -355 0 -355 0 0 -355z
m402 -242 c-6 -15 -16 -41 -22 -57 -6 -16 -13 -27 -15 -24 -4 4 5 38 30 107 3
8 8 11 12 8 3 -4 1 -19 -5 -34z m-171 -19 c-2 -32 1 -49 10 -55 11 -7 10 -9
-3 -9 -15 0 -18 9 -18 55 0 30 3 55 8 55 4 0 5 -21 3 -46z m111 -4 c3 -37 2
-40 -22 -39 -14 0 -19 3 -12 6 6 2 12 18 12 34 0 22 -4 28 -12 23 -9 -5 -9 -3
1 9 19 23 28 14 33 -33z m128 24 c12 -31 -3 -64 -29 -64 -44 0 -32 89 12 90 4
0 12 -12 17 -26z m40 -29 c0 -37 -4 -55 -12 -55 -9 0 -13 18 -13 55 0 37 4 55
13 55 8 0 12 -18 12 -55z m-223 -1 c-3 -3 -12 -4 -19 -1 -8 3 -5 6 6 6 11 1
17 -2 13 -5z"/>
<path d="M2600 2260 c0 -20 5 -30 15 -30 10 0 15 10 15 30 0 20 -5 30 -15 30
-10 0 -15 -10 -15 -30z"/>
<path d="M2890 2525 l0 -355 355 0 355 0 0 355 0 355 -355 0 -355 0 0 -355z
m400 279 c93 -19 151 -167 94 -241 -13 -17 -16 -16 -49 19 -35 38 -47 89 -25
103 6 3 10 21 10 40 0 28 -4 33 -20 32 -15 -1 -20 -9 -21 -32 l-2 -30 -8 35
c-6 27 -7 21 -3 -23 l4 -59 -30 33 c-16 19 -30 44 -30 57 0 20 -4 23 -24 18
-40 -10 -42 22 -3 39 36 16 60 18 107 9z m-133 -76 c20 -19 23 -31 23 -105 0
-93 15 -113 22 -28 3 30 8 58 11 62 14 14 56 -40 59 -75 3 -35 28 -59 28 -28
0 15 2 15 25 0 14 -9 25 -20 25 -25 0 -17 -60 -39 -105 -39 -57 0 -96 19 -132
66 -33 44 -38 124 -10 167 21 33 24 33 54 5z m88 -459 c-25 -71 -25 -72 -30
-67 -4 4 5 38 30 107 3 8 8 12 10 9 3 -3 -2 -25 -10 -49z m-124 -5 c-2 -32 1
-49 10 -55 11 -7 10 -9 -3 -9 -15 0 -18 9 -18 55 0 30 3 55 8 55 4 0 5 -21 3
-46z m79 20 c12 -32 -3 -64 -30 -64 -40 0 -27 89 13 90 4 0 12 -12 17 -26z
m118 -23 c-2 -26 -8 -37 -22 -39 -34 -7 -49 44 -21 72 25 25 46 9 43 -33z m42
-6 c0 -37 -4 -55 -12 -55 -9 0 -13 18 -13 55 0 37 4 55 13 55 8 0 12 -18 12
-55z"/>
<path d="M3160 2260 c0 -20 5 -30 15 -30 10 0 15 10 15 30 0 20 -5 30 -15 30
-10 0 -15 -10 -15 -30z"/>
<path d="M3280 2259 c0 -38 24 -35 28 4 2 19 -1 27 -12 27 -11 0 -16 -10 -16
-31z"/>
<path d="M3610 2525 l0 -355 355 0 355 0 0 355 0 355 -355 0 -355 0 0 -355z
m355 -256 c-25 -71 -25 -72 -30 -67 -4 4 5 38 30 107 3 8 8 12 10 9 3 -3 -2
-25 -10 -49z m-124 -5 c-2 -32 1 -49 10 -55 11 -7 10 -9 -3 -9 -15 0 -18 9
-18 55 0 30 3 55 8 55 4 0 5 -21 3 -46z m71 -4 c3 -37 2 -40 -22 -39 -14 0
-19 3 -12 6 6 2 12 18 12 34 0 22 -4 28 -12 23 -9 -5 -9 -3 1 9 19 23 28 14
33 -33z m126 1 c-2 -26 -8 -37 -22 -39 -34 -7 -49 44 -21 72 25 25 46 9 43
-33z m42 -6 c0 -37 -4 -55 -12 -55 -9 0 -13 18 -13 55 0 37 4 55 13 55 8 0 12
-18 12 -55z"/>
<path d="M4000 2259 c0 -38 24 -35 28 4 2 19 -1 27 -12 27 -11 0 -16 -10 -16
-31z"/>
<path d="M4330 2525 l0 -355 355 0 355 0 0 355 0 355 -355 0 -355 0 0 -355z
m400 279 c93 -19 151 -167 94 -241 -13 -17 -16 -16 -49 19 -35 38 -47 89 -25
103 6 3 10 21 10 40 0 28 -4 33 -20 32 -15 -1 -20 -9 -21 -32 l-2 -30 -8 35
c-6 27 -7 21 -3 -23 l4 -59 -30 33 c-16 19 -30 44 -30 57 0 20 -4 23 -24 18
-40 -10 -42 22 -3 39 36 16 60 18 107 9z m-133 -76 c20 -19 23 -31 23 -105 0
-93 15 -113 22 -28 3 30 8 58 11 62 14 14 56 -40 59 -75 3 -35 28 -59 28 -28
0 15 2 15 25 0 14 -9 25 -20 25 -25 0 -17 -60 -39 -105 -39 -57 0 -96 19 -132
66 -33 44 -38 124 -10 167 21 33 24 33 54 5z m88 -459 c-25 -71 -25 -72 -30
-67 -4 4 5 38 30 107 3 8 8 12 10 9 3 -3 -2 -25 -10 -49z m-124 -5 c-2 -32 1
-49 10 -55 11 -7 10 -9 -3 -9 -15 0 -18 9 -18 55 0 30 3 55 8 55 4 0 5 -21 3
-46z m69 36 c13 -8 13 -13 -2 -39 -15 -28 -15 -30 0 -34 10 -3 5 -5 -10 -6
-31 -1 -36 10 -13 29 20 16 19 40 -1 40 -8 0 -12 5 -9 10 8 12 16 12 35 0z
m128 -39 c-2 -26 -8 -37 -22 -39 -34 -7 -49 44 -21 72 25 25 46 9 43 -33z m42
-6 c0 -37 -4 -55 -12 -55 -9 0 -13 18 -13 55 0 37 4 55 13 55 8 0 12 -18 12
-55z"/>
<path d="M4720 2259 c0 -38 24 -35 28 4 2 19 -1 27 -12 27 -11 0 -16 -10 -16
-31z"/>
<path d="M5050 2525 l0 -355 355 0 355 0 0 355 0 355 -355 0 -355 0 0 -355z
m355 -256 c-25 -71 -25 -72 -30 -67 -4 4 5 38 30 107 3 8 8 12 10 9 3 -3 -2
-25 -10 -49z m-124 -5 c-2 -32 1 -49 10 -55 11 -7 10 -9 -3 -9 -15 0 -18 9
-18 55 0 30 3 55 8 55 4 0 5 -21 3 -46z m66 38 c6 -4 11 -23 10 -42 -2 -29 -6
-35 -27 -37 l-25 -3 25 11 c24 10 24 11 6 25 -11 8 -14 14 -8 14 7 0 12 5 12
10 0 6 -7 10 -16 10 -8 0 -12 5 -9 10 7 12 16 12 32 2z m131 -41 c-2 -26 -8
-37 -22 -39 -34 -7 -49 44 -21 72 25 25 46 9 43 -33z m42 -6 c0 -37 -4 -55
-12 -55 -9 0 -13 18 -13 55 0 37 4 55 13 55 8 0 12 -18 12 -55z"/>
<path d="M5440 2259 c0 -38 24 -35 28 4 2 19 -1 27 -12 27 -11 0 -16 -10 -16
-31z"/>
<path d="M5770 2525 l0 -355 355 0 355 0 0 355 0 355 -355 0 -355 0 0 -355z
m355 -256 c-25 -71 -25 -72 -30 -67 -4 4 5 38 30 107 3 8 8 12 10 9 3 -3 -2
-25 -10 -49z m-124 -5 c-2 -32 1 -49 10 -55 11 -7 10 -9 -3 -9 -15 0 -18 9
-18 55 0 30 3 55 8 55 4 0 5 -21 3 -46z m80 -15 c6 -3 3 -11 -6 -19 -9 -7 -15
-8 -15 -2 0 6 -9 12 -20 14 -20 3 -20 4 2 38 l23 35 3 -30 c2 -16 8 -33 13
-36z m117 12 c-2 -26 -8 -37 -22 -39 -34 -7 -49 44 -21 72 25 25 46 9 43 -33z
m42 -6 c0 -37 -4 -55 -12 -55 -9 0 -13 18 -13 55 0 37 4 55 13 55 8 0 12 -18
12 -55z"/>
<path d="M6046 2265 c-3 -8 -1 -15 4 -15 6 0 10 7 10 15 0 8 -2 15 -4 15 -2 0
-6 -7 -10 -15z"/>
<path d="M6160 2259 c0 -38 24 -35 28 4 2 19 -1 27 -12 27 -11 0 -16 -10 -16
-31z"/>
<path d="M10 1805 l0 -355 355 0 355 0 0 355 0 355 -355 0 -355 0 0 -355z
m545 105 c3 -5 -1 -10 -10 -10 -9 0 -13 5 -10 10 3 6 8 10 10 10 2 0 7 -4 10
-10z m5 -24 c0 -11 -19 -15 -25 -6 -3 5 1 10 9 10 9 0 16 -2 16 -4z m23 -23
c-7 -2 -9 -11 -6 -19 3 -8 1 -14 -4 -14 -20 0 -22 14 -6 32 9 10 19 15 22 12
3 -4 1 -9 -6 -11z m-43 -17 c0 -2 -7 -6 -15 -10 -8 -3 -15 -1 -15 4 0 6 7 10
15 10 8 0 15 -2 15 -4z m24 -25 c9 -14 -4 -41 -19 -41 -15 0 -28 27 -19 41 3
5 11 9 19 9 8 0 16 -4 19 -9z m4 -148 c-10 -2 -28 -2 -40 0 -13 2 -5 4 17 4
22 1 32 -1 23 -4z m-176 -110 c-6 -15 -16 -41 -22 -57 -6 -16 -13 -27 -15 -24
-4 4 5 38 30 107 3 8 8 11 12 8 3 -4 1 -19 -5 -34z m-171 -19 c-2 -32 1 -49
10 -55 11 -7 10 -9 -3 -9 -15 0 -18 9 -18 55 0 30 3 55 8 55 4 0 5 -21 3 -46z
m121 6 c5 -33 -7 -62 -19 -44 -5 5 -24 15 -43 22 -19 6 -26 10 -15 9 13 -2 26
8 38 26 20 33 33 29 39 -13z m150 -10 c3 -37 2 -40 -22 -39 -14 0 -19 3 -12 6
6 2 12 18 12 34 0 22 -4 28 -12 23 -9 -5 -9 -3 1 9 19 23 28 14 33 -33z m48
-5 c0 -30 -3 -55 -7 -55 -5 0 -8 25 -8 55 0 30 3 55 8 55 4 0 7 -25 7 -55z
m-103 -1 c-3 -3 -12 -4 -19 -1 -8 3 -5 6 6 6 11 1 17 -2 13 -5z"/>
<path d="M306 1545 c-3 -8 -1 -15 4 -15 6 0 10 7 10 15 0 8 -2 15 -4 15 -2 0
-6 -7 -10 -15z"/>
<path d="M730 1805 l0 -355 355 0 355 0 0 220 0 220 -35 0 -35 0 0 135 0 135
-320 0 -320 0 0 -355z"/>
<path d="M1450 1805 l0 -355 355 0 355 0 0 355 0 355 -355 0 -355 0 0 -355z
m382 -242 c-6 -15 -16 -41 -22 -57 -6 -16 -13 -27 -15 -24 -4 4 5 38 30 107 3
8 8 11 12 8 3 -4 1 -19 -5 -34z m-171 -19 c-2 -32 1 -49 10 -55 11 -7 10 -9
-3 -9 -15 0 -18 9 -18 55 0 30 3 55 8 55 4 0 5 -21 3 -46z m109 36 c13 -8 13
-13 -2 -39 -15 -28 -15 -30 0 -34 10 -3 5 -5 -10 -6 -31 -1 -36 10 -13 29 20
16 19 40 -1 40 -8 0 -12 5 -9 10 8 12 16 12 35 0z m162 -40 c3 -37 2 -40 -22
-39 -14 0 -19 3 -12 6 6 2 12 18 12 34 0 22 -4 28 -12 23 -9 -5 -9 -3 1 9 19
23 28 14 33 -33z m48 -5 c0 -46 -3 -55 -17 -55 -14 0 -15 2 -4 9 9 6 12 23 10
55 -2 25 -1 46 3 46 5 0 8 -25 8 -55z m-263 -1 c-3 -3 -12 -4 -19 -1 -8 3 -5
6 6 6 11 1 17 -2 13 -5z m160 0 c-3 -3 -12 -4 -19 -1 -8 3 -5 6 6 6 11 1 17
-2 13 -5z"/>
<path d="M2170 1805 l0 -355 355 0 355 0 0 355 0 355 -355 0 -355 0 0 -355z
m382 -242 c-6 -15 -16 -41 -22 -57 -6 -16 -13 -27 -15 -24 -4 4 5 38 30 107 3
8 8 11 12 8 3 -4 1 -19 -5 -34z m-171 -19 c-2 -32 1 -49 10 -55 11 -7 10 -9
-3 -9 -15 0 -18 9 -18 55 0 30 3 55 8 55 4 0 5 -21 3 -46z m111 -4 c3 -37 2
-40 -22 -39 -14 0 -19 3 -12 6 6 2 12 18 12 34 0 22 -4 28 -12 23 -9 -5 -9 -3
1 9 19 23 28 14 33 -33z m160 0 c3 -37 2 -40 -22 -39 -14 0 -19 3 -12 6 6 2
12 18 12 34 0 22 -4 28 -12 23 -9 -5 -9 -3 1 9 19 23 28 14 33 -33z m48 -5 c0
-46 -3 -55 -17 -55 -14 0 -15 2 -4 9 9 6 12 23 10 55 -2 25 -1 46 3 46 5 0 8
-25 8 -55z m-263 -1 c-3 -3 -12 -4 -19 -1 -8 3 -5 6 6 6 11 1 17 -2 13 -5z
m160 0 c-3 -3 -12 -4 -19 -1 -8 3 -5 6 6 6 11 1 17 -2 13 -5z"/>
<path d="M2890 1805 l0 -355 355 0 355 0 0 355 0 355 -355 0 -355 0 0 -355z
m355 -256 c-25 -71 -25 -72 -30 -67 -4 4 5 38 30 107 3 8 8 12 10 9 3 -3 -2
-25 -10 -49z m-124 -5 c-2 -32 1 -49 10 -55 11 -7 10 -9 -3 -9 -15 0 -18 9
-18 55 0 30 3 55 8 55 4 0 5 -21 3 -46z m79 20 c12 -32 -3 -64 -30 -64 -40 0
-27 89 13 90 4 0 12 -12 17 -26z m152 -24 c3 -37 2 -40 -22 -39 -14 0 -19 3
-12 6 6 2 12 18 12 34 0 22 -4 28 -12 23 -9 -5 -9 -3 1 9 19 23 28 14 33 -33z
m48 -5 c0 -37 -4 -55 -12 -55 -9 0 -13 18 -13 55 0 37 4 55 13 55 8 0 12 -18
12 -55z m-107 -2 c-7 -2 -19 -2 -25 0 -7 3 -2 5 12 5 14 0 19 -2 13 -5z"/>
<path d="M3160 1540 c0 -20 5 -30 15 -30 10 0 15 10 15 30 0 20 -5 30 -15 30
-10 0 -15 -10 -15 -30z"/>
<path d="M3610 1805 l0 -355 355 0 355 0 0 355 0 355 -355 0 -355 0 0 -355z
m226 -26 c3 -5 14 -9 25 -9 44 0 11 -41 -35 -44 -37 -1 -49 9 -18 17 9 3 2 5
-15 6 -28 1 -32 5 -31 24 2 19 7 22 35 19 18 -2 36 -8 39 -13z m-91 -8 c-3 -6
-14 -11 -23 -11 -13 0 -13 2 4 14 21 15 30 14 19 -3z m155 -31 c0 -5 -5 -10
-11 -10 -5 0 -7 5 -4 10 3 6 8 10 11 10 2 0 4 -4 4 -10z m170 1 c35 -2 43 -17
25 -44 -18 -28 -51 -46 -42 -23 4 9 -3 16 -16 19 -12 2 -31 8 -42 12 -16 5
-17 5 -5 -4 13 -9 13 -11 -1 -11 -26 0 -42 25 -26 41 12 12 32 14 107 10z m77
-41 c-11 -30 -27 -41 -27 -18 0 10 28 48 36 48 1 0 -3 -13 -9 -30z m91 -34
c14 -13 9 -14 -60 -8 -10 1 -18 9 -18 18 0 13 7 15 32 10 18 -4 39 -12 46 -20z
m-288 -6 c0 -5 -7 -7 -15 -4 -8 4 -15 8 -15 10 0 2 7 4 15 4 8 0 15 -4 15 -10z
m15 -111 c-25 -71 -25 -72 -30 -67 -4 4 5 38 30 107 3 8 8 12 10 9 3 -3 -2
-25 -10 -49z m-124 -5 c-2 -32 1 -49 10 -55 11 -7 10 -9 -3 -9 -15 0 -18 9
-18 55 0 30 3 55 8 55 4 0 5 -21 3 -46z m71 -4 c3 -37 2 -40 -22 -39 -14 0
-19 3 -12 6 6 2 12 18 12 34 0 22 -4 28 -12 23 -9 -5 -9 -3 1 9 19 23 28 14
33 -33z m160 0 c3 -37 2 -40 -22 -39 -14 0 -19 3 -12 6 6 2 12 18 12 34 0 22
-4 28 -12 23 -9 -5 -9 -3 1 9 19 23 28 14 33 -33z m48 -5 c0 -37 -4 -55 -12
-55 -9 0 -13 18 -13 55 0 37 4 55 13 55 8 0 12 -18 12 -55z m-107 -2 c-7 -2
-19 -2 -25 0 -7 3 -2 5 12 5 14 0 19 -2 13 -5z"/>
<path d="M4330 1805 l0 -355 355 0 355 0 0 355 0 355 -355 0 -355 0 0 -355z
m355 -256 c-25 -71 -25 -72 -30 -67 -4 4 5 38 30 107 3 8 8 12 10 9 3 -3 -2
-25 -10 -49z m-124 -5 c-2 -32 1 -49 10 -55 11 -7 10 -9 -3 -9 -15 0 -18 9
-18 55 0 30 3 55 8 55 4 0 5 -21 3 -46z m69 36 c13 -8 13 -13 -2 -39 -15 -28
-15 -30 0 -34 10 -3 5 -5 -10 -6 -31 -1 -36 10 -13 29 20 16 19 40 -1 40 -8 0
-12 5 -9 10 8 12 16 12 35 0z m162 -40 c3 -37 2 -40 -22 -39 -14 0 -19 3 -12
6 6 2 12 18 12 34 0 22 -4 28 -12 23 -9 -5 -9 -3 1 9 19 23 28 14 33 -33z m48
-5 c0 -37 -4 -55 -12 -55 -9 0 -13 18 -13 55 0 37 4 55 13 55 8 0 12 -18 12
-55z m-107 -2 c-7 -2 -19 -2 -25 0 -7 3 -2 5 12 5 14 0 19 -2 13 -5z"/>
<path d="M5050 1805 l0 -355 355 0 355 0 0 355 0 355 -355 0 -355 0 0 -355z
m355 -256 c-25 -71 -25 -72 -30 -67 -4 4 5 38 30 107 3 8 8 12 10 9 3 -3 -2
-25 -10 -49z m-124 -5 c-2 -32 1 -49 10 -55 11 -7 10 -9 -3 -9 -15 0 -18 9
-18 55 0 30 3 55 8 55 4 0 5 -21 3 -46z m66 38 c6 -4 11 -23 10 -42 -2 -29 -6
-35 -27 -37 l-25 -3 25 11 c24 10 24 11 6 25 -11 8 -14 14 -8 14 7 0 12 5 12
10 0 6 -7 10 -16 10 -8 0 -12 5 -9 10 7 12 16 12 32 2z m165 -42 c3 -37 2 -40
-22 -39 -14 0 -19 3 -12 6 6 2 12 18 12 34 0 22 -4 28 -12 23 -9 -5 -9 -3 1 9
19 23 28 14 33 -33z m48 -5 c0 -37 -4 -55 -12 -55 -9 0 -13 18 -13 55 0 37 4
55 13 55 8 0 12 -18 12 -55z m-107 -2 c-7 -2 -19 -2 -25 0 -7 3 -2 5 12 5 14
0 19 -2 13 -5z"/>
<path d="M5770 1805 l0 -355 360 0 360 0 0 355 0 355 -360 0 -360 0 0 -355z"/>
<path d="M10 1085 l0 -355 355 0 355 0 0 355 0 355 -355 0 -355 0 0 -355z
m382 -242 c-6 -15 -16 -41 -22 -57 -6 -16 -13 -27 -15 -24 -4 4 5 38 30 107 3
8 8 11 12 8 3 -4 1 -19 -5 -34z m-171 -19 c-2 -32 1 -49 10 -55 11 -7 10 -9
-3 -9 -15 0 -18 9 -18 55 0 30 3 55 8 55 4 0 5 -21 3 -46z m121 6 c5 -33 -7
-62 -19 -44 -5 5 -24 15 -43 22 -19 6 -26 10 -15 9 13 -2 26 8 38 26 20 33 33
29 39 -13z m148 30 c13 -8 13 -13 -2 -39 -15 -28 -15 -30 0 -34 10 -3 5 -5
-10 -6 -31 -1 -36 10 -13 29 20 16 19 40 -1 40 -8 0 -12 5 -9 10 8 12 16 12
35 0z m50 -45 c0 -46 -3 -55 -17 -55 -14 0 -15 2 -4 9 9 6 12 23 10 55 -2 25
-1 46 3 46 5 0 8 -25 8 -55z m-103 -1 c-3 -3 -12 -4 -19 -1 -8 3 -5 6 6 6 11
1 17 -2 13 -5z"/>
<path d="M306 825 c-3 -8 -1 -15 4 -15 6 0 10 7 10 15 0 8 -2 15 -4 15 -2 0
-6 -7 -10 -15z"/>
<path d="M730 1085 l0 -355 355 0 355 0 0 355 0 355 -355 0 -355 0 0 -355z
m382 -242 c-6 -15 -16 -41 -22 -57 -6 -16 -13 -27 -15 -24 -4 4 5 38 30 107 3
8 8 11 12 8 3 -4 1 -19 -5 -34z m-171 -19 c-2 -32 1 -49 10 -55 11 -7 10 -9
-3 -9 -15 0 -18 9 -18 55 0 30 3 55 8 55 4 0 5 -21 3 -46z m106 38 c6 -4 11
-23 10 -42 -2 -30 -6 -35 -27 -37 -22 -1 -22 -1 -2 4 26 5 28 18 5 32 -10 6
-12 11 -5 11 18 0 15 20 -4 20 -8 0 -12 5 -9 10 7 12 16 12 32 2z m163 -2 c13
-8 13 -13 -2 -39 -15 -28 -15 -30 0 -34 10 -3 5 -5 -10 -6 -31 -1 -36 10 -13
29 20 16 19 40 -1 40 -8 0 -12 5 -9 10 8 12 16 12 35 0z m50 -45 c0 -46 -3
-55 -17 -55 -14 0 -15 2 -4 9 9 6 12 23 10 55 -2 25 -1 46 3 46 5 0 8 -25 8
-55z m-263 -1 c-3 -3 -12 -4 -19 -1 -8 3 -5 6 6 6 11 1 17 -2 13 -5z m160 0
c-3 -3 -12 -4 -19 -1 -8 3 -5 6 6 6 11 1 17 -2 13 -5z"/>
<path d="M1450 1085 l0 -355 355 0 355 0 0 355 0 355 -355 0 -355 0 0 -355z
m382 -242 c-6 -15 -16 -41 -22 -57 -6 -16 -13 -27 -15 -24 -4 4 5 38 30 107 3
8 8 11 12 8 3 -4 1 -19 -5 -34z m-171 -19 c-2 -32 1 -49 10 -55 11 -7 10 -9
-3 -9 -15 0 -18 9 -18 55 0 30 3 55 8 55 4 0 5 -21 3 -46z m109 36 c13 -8 13
-13 -2 -39 -15 -28 -15 -30 0 -34 10 -3 5 -5 -10 -6 -31 -1 -36 10 -13 29 20
16 19 40 -1 40 -8 0 -12 5 -9 10 8 12 16 12 35 0z m160 0 c13 -8 13 -13 -2
-39 -15 -28 -15 -30 0 -34 10 -3 5 -5 -10 -6 -31 -1 -36 10 -13 29 20 16 19
40 -1 40 -8 0 -12 5 -9 10 8 12 16 12 35 0z m50 -45 c0 -46 -3 -55 -17 -55
-14 0 -15 2 -4 9 9 6 12 23 10 55 -2 25 -1 46 3 46 5 0 8 -25 8 -55z m-263 -1
c-3 -3 -12 -4 -19 -1 -8 3 -5 6 6 6 11 1 17 -2 13 -5z m160 0 c-3 -3 -12 -4
-19 -1 -8 3 -5 6 6 6 11 1 17 -2 13 -5z"/>
<path d="M2170 1085 l0 -355 355 0 355 0 0 355 0 355 -355 0 -355 0 0 -355z
m400 279 c93 -19 151 -167 94 -241 -13 -17 -16 -16 -49 19 -35 38 -47 89 -25
103 6 3 10 21 10 40 0 28 -4 33 -20 32 -15 -1 -20 -9 -21 -32 l-2 -30 -8 35
c-6 27 -7 21 -3 -23 l4 -59 -30 33 c-16 19 -30 44 -30 57 0 20 -4 23 -24 18
-40 -10 -42 22 -3 39 36 16 60 18 107 9z m-133 -76 c20 -19 23 -31 23 -105 0
-93 15 -113 22 -28 3 30 8 58 11 62 14 14 56 -40 59 -75 3 -35 28 -59 28 -28
0 15 2 15 25 0 14 -9 25 -20 25 -25 0 -17 -60 -39 -105 -39 -57 0 -96 19 -132
66 -33 44 -38 124 -10 167 21 33 24 33 54 5z m115 -445 c-6 -15 -16 -41 -22
-57 -6 -16 -13 -27 -15 -24 -4 4 5 38 30 107 3 8 8 11 12 8 3 -4 1 -19 -5 -34z
m-171 -19 c-2 -32 1 -49 10 -55 11 -7 10 -9 -3 -9 -15 0 -18 9 -18 55 0 30 3
55 8 55 4 0 5 -21 3 -46z m111 -4 c3 -37 2 -40 -22 -39 -14 0 -19 3 -12 6 6 2
12 18 12 34 0 22 -4 28 -12 23 -9 -5 -9 -3 1 9 19 23 28 14 33 -33z m158 40
c13 -8 13 -13 -2 -39 -15 -28 -15 -30 0 -34 10 -3 5 -5 -10 -6 -31 -1 -36 10
-13 29 20 16 19 40 -1 40 -8 0 -12 5 -9 10 8 12 16 12 35 0z m50 -45 c0 -46
-3 -55 -17 -55 -14 0 -15 2 -4 9 9 6 12 23 10 55 -2 25 -1 46 3 46 5 0 8 -25
8 -55z m-263 -1 c-3 -3 -12 -4 -19 -1 -8 3 -5 6 6 6 11 1 17 -2 13 -5z m160 0
c-3 -3 -12 -4 -19 -1 -8 3 -5 6 6 6 11 1 17 -2 13 -5z"/>
<path d="M2890 1085 l0 -355 355 0 355 0 0 355 0 355 -355 0 -355 0 0 -355z
m355 -256 c-25 -71 -25 -72 -30 -67 -4 4 5 38 30 107 3 8 8 12 10 9 3 -3 -2
-25 -10 -49z m-124 -5 c-2 -32 1 -49 10 -55 11 -7 10 -9 -3 -9 -15 0 -18 9
-18 55 0 30 3 55 8 55 4 0 5 -21 3 -46z m79 20 c12 -32 -3 -64 -30 -64 -40 0
-27 89 13 90 4 0 12 -12 17 -26z m150 16 c13 -8 13 -13 -2 -39 -15 -28 -15
-30 0 -34 10 -3 5 -5 -10 -6 -31 -1 -36 10 -13 29 20 16 19 40 -1 40 -8 0 -12
5 -9 10 8 12 16 12 35 0z m50 -45 c0 -37 -4 -55 -12 -55 -9 0 -13 18 -13 55 0
37 4 55 13 55 8 0 12 -18 12 -55z m-107 -2 c-7 -2 -19 -2 -25 0 -7 3 -2 5 12
5 14 0 19 -2 13 -5z"/>
<path d="M3160 820 c0 -20 5 -30 15 -30 10 0 15 10 15 30 0 20 -5 30 -15 30
-10 0 -15 -10 -15 -30z"/>
<path d="M3610 1085 l0 -355 355 0 355 0 0 355 0 355 -355 0 -355 0 0 -355z
m400 279 c93 -19 151 -167 94 -241 -13 -17 -16 -16 -49 19 -35 38 -47 89 -25
103 6 3 10 21 10 40 0 28 -4 33 -20 32 -15 -1 -20 -9 -21 -32 l-2 -30 -8 35
c-6 27 -7 21 -3 -23 l4 -59 -30 33 c-16 19 -30 44 -30 57 0 20 -4 23 -24 18
-40 -10 -42 22 -3 39 36 16 60 18 107 9z m-133 -76 c20 -19 23 -31 23 -105 0
-93 15 -113 22 -28 3 30 8 58 11 62 14 14 56 -40 59 -75 3 -35 28 -59 28 -28
0 15 2 15 25 0 14 -9 25 -20 25 -25 0 -17 -60 -39 -105 -39 -57 0 -96 19 -132
66 -33 44 -38 124 -10 167 21 33 24 33 54 5z m88 -459 c-25 -71 -25 -72 -30
-67 -4 4 5 38 30 107 3 8 8 12 10 9 3 -3 -2 -25 -10 -49z m-124 -5 c-2 -32 1
-49 10 -55 11 -7 10 -9 -3 -9 -15 0 -18 9 -18 55 0 30 3 55 8 55 4 0 5 -21 3
-46z m71 -4 c3 -37 2 -40 -22 -39 -14 0 -19 3 -12 6 6 2 12 18 12 34 0 22 -4
28 -12 23 -9 -5 -9 -3 1 9 19 23 28 14 33 -33z m158 40 c13 -8 13 -13 -2 -39
-15 -28 -15 -30 0 -34 10 -3 5 -5 -10 -6 -31 -1 -36 10 -13 29 20 16 19 40 -1
40 -8 0 -12 5 -9 10 8 12 16 12 35 0z m50 -45 c0 -37 -4 -55 -12 -55 -9 0 -13
18 -13 55 0 37 4 55 13 55 8 0 12 -18 12 -55z m-107 -2 c-7 -2 -19 -2 -25 0
-7 3 -2 5 12 5 14 0 19 -2 13 -5z"/>
<path d="M4330 1085 l0 -355 355 0 355 0 0 355 0 355 -355 0 -355 0 0 -355z
m355 -256 c-25 -71 -25 -72 -30 -67 -4 4 5 38 30 107 3 8 8 12 10 9 3 -3 -2
-25 -10 -49z m-124 -5 c-2 -32 1 -49 10 -55 11 -7 10 -9 -3 -9 -15 0 -18 9
-18 55 0 30 3 55 8 55 4 0 5 -21 3 -46z m69 36 c13 -8 13 -13 -2 -39 -15 -28
-15 -30 0 -34 10 -3 5 -5 -10 -6 -31 -1 -36 10 -13 29 20 16 19 40 -1 40 -8 0
-12 5 -9 10 8 12 16 12 35 0z m160 0 c13 -8 13 -13 -2 -39 -15 -28 -15 -30 0
-34 10 -3 5 -5 -10 -6 -31 -1 -36 10 -13 29 20 16 19 40 -1 40 -8 0 -12 5 -9
10 8 12 16 12 35 0z m50 -45 c0 -37 -4 -55 -12 -55 -9 0 -13 18 -13 55 0 37 4
55 13 55 8 0 12 -18 12 -55z m-107 -2 c-7 -2 -19 -2 -25 0 -7 3 -2 5 12 5 14
0 19 -2 13 -5z"/>
<path d="M5050 1085 l0 -355 355 0 355 0 0 355 0 355 -355 0 -355 0 0 -355z
m355 -256 c-25 -71 -25 -72 -30 -67 -4 4 5 38 30 107 3 8 8 12 10 9 3 -3 -2
-25 -10 -49z m-124 -5 c-2 -32 1 -49 10 -55 11 -7 10 -9 -3 -9 -15 0 -18 9
-18 55 0 30 3 55 8 55 4 0 5 -21 3 -46z m66 38 c6 -4 11 -23 10 -42 -2 -29 -6
-35 -27 -37 l-25 -3 25 11 c24 10 24 11 6 25 -11 8 -14 14 -8 14 7 0 12 5 12
10 0 6 -7 10 -16 10 -8 0 -12 5 -9 10 7 12 16 12 32 2z m163 -2 c13 -8 13 -13
-2 -39 -15 -28 -15 -30 0 -34 10 -3 5 -5 -10 -6 -31 -1 -36 10 -13 29 20 16
19 40 -1 40 -8 0 -12 5 -9 10 8 12 16 12 35 0z m50 -45 c0 -37 -4 -55 -12 -55
-9 0 -13 18 -13 55 0 37 4 55 13 55 8 0 12 -18 12 -55z m-107 -2 c-7 -2 -19
-2 -25 0 -7 3 -2 5 12 5 14 0 19 -2 13 -5z"/>
<path d="M5781 1426 c-7 -8 -11 -27 -9 -41 l3 -26 40 40 39 41 -31 0 c-17 0
-36 -6 -42 -14z"/>
<path d="M5828 1389 c-46 -40 -58 -57 -58 -80 l0 -30 32 38 c18 21 38 41 45
46 7 4 18 14 26 21 8 8 31 24 53 35 l39 21 -40 0 c-34 0 -49 -8 -97 -51z"/>
<path d="M5965 1417 c-70 -31 -110 -61 -156 -119 l-39 -50 0 -138 0 -138 39
-49 c35 -45 120 -110 164 -126 12 -5 17 -1 17 12 0 11 -15 25 -40 36 -47 21
-130 107 -149 155 -22 54 -26 155 -7 195 9 18 16 38 16 44 0 21 110 122 155
142 54 24 71 28 146 36 148 15 317 -96 360 -236 6 -21 7 -17 8 21 2 77 -71
161 -186 214 -45 21 -66 24 -165 24 -94 -1 -121 -4 -163 -23z"/>
<path d="M6330 1421 c19 -11 61 -44 93 -74 57 -55 57 -55 57 -27 0 42 -97 120
-148 120 l-37 -1 35 -18z"/>
<path d="M6436 1406 c35 -31 39 -32 42 -14 6 35 -6 48 -44 48 l-37 0 39 -34z"/>
<path d="M6006 1380 c-99 -38 -161 -97 -190 -183 -35 -103 -11 -200 68 -274
28 -27 63 -54 79 -60 24 -11 27 -11 27 7 0 11 -7 20 -15 20 -23 0 -116 103
-131 146 -18 51 -17 90 2 146 28 85 117 161 204 176 90 16 182 3 239 -32 94
-60 130 -124 131 -230 0 -81 -23 -138 -76 -192 -32 -31 -45 -64 -26 -64 14 0
67 53 93 95 14 22 33 64 42 94 16 50 16 57 0 125 -9 39 -21 73 -25 74 -4 2 -8
9 -8 15 -1 16 -47 66 -92 100 -72 55 -227 73 -322 37z"/>
<path d="M6000 1319 c-63 -34 -106 -72 -126 -111 -18 -35 -18 -146 1 -191 18
-44 97 -114 144 -127 57 -16 121 -24 121 -14 0 5 15 10 34 11 49 2 126 60 153
114 65 128 -11 265 -167 300 -43 10 -130 -14 -178 -50 -44 -32 -72 -89 -72
-144 0 -58 49 -132 105 -161 62 -32 139 -28 194 9 88 59 113 152 60 224 -75
104 -213 100 -286 -8 -37 -54 -26 -107 32 -161 23 -22 36 -25 97 -25 66 0 71
2 99 32 38 44 46 77 25 120 -11 24 -30 40 -61 54 -53 23 -83 18 -125 -21 -51
-48 -34 -117 34 -140 81 -26 144 59 80 109 -33 26 -37 26 -69 -2 -18 -15 -24
-28 -20 -40 9 -21 45 -23 45 -2 0 8 7 15 15 15 25 0 18 -39 -9 -46 -36 -9 -66
12 -66 46 0 58 76 80 124 35 29 -27 31 -38 16 -82 -13 -35 -46 -53 -99 -53
-32 0 -45 6 -70 35 -42 48 -42 92 1 133 56 56 163 50 203 -11 47 -72 34 -134
-39 -180 -73 -46 -165 -31 -221 35 -20 24 -25 40 -25 86 0 62 21 95 85 137 47
31 148 27 201 -7 85 -55 106 -159 47 -241 -103 -145 -342 -100 -387 73 -9 35
-11 61 -5 72 5 9 9 24 9 33 0 24 68 93 114 117 50 26 141 34 192 18 95 -31
164 -119 164 -209 -1 -80 -56 -191 -96 -191 -6 0 -17 -6 -23 -14 -9 -11 -8
-15 5 -20 23 -9 36 -7 29 4 -3 6 1 10 10 10 9 0 27 12 41 28 123 137 75 344
-99 417 -21 9 -66 15 -109 15 -62 0 -81 -5 -128 -31z"/>
<path d="M6472 1026 c-2 -31 -48 -117 -81 -153 -11 -12 -34 -30 -51 -39 -19
-12 -30 -26 -30 -41 l0 -22 34 20 c44 25 124 113 132 143 3 12 4 45 1 72 -2
27 -4 36 -5 20z"/>
<path d="M5770 908 c0 -38 65 -100 149 -143 88 -44 309 -47 352 -4 30 30 22
41 -18 23 -49 -22 -237 -28 -273 -9 -14 7 -43 21 -64 31 -22 11 -63 43 -93 73
-49 49 -53 51 -53 29z"/>
<path d="M6446 862 c-29 -43 -59 -65 -144 -108 l-47 -24 43 0 c75 0 187 91
180 147 -3 26 -3 26 -32 -15z"/>
<path d="M6194 869 c-3 -5 -16 -9 -30 -9 -15 0 -24 -6 -24 -15 0 -18 12 -19
62 -5 46 13 56 26 23 33 -14 2 -28 0 -31 -4z"/>
<path d="M6010 855 c0 -8 6 -15 14 -15 22 0 28 17 10 24 -22 9 -24 8 -24 -9z"/>
<path d="M5770 829 c0 -20 8 -34 28 -46 15 -10 32 -24 38 -32 6 -7 35 -16 65
-18 l54 -4 -50 25 c-27 14 -69 43 -92 64 l-43 40 0 -29z"/>
<path d="M6056 845 c-3 -8 -1 -15 4 -15 6 0 10 7 10 15 0 8 -2 15 -4 15 -2 0
-6 -7 -10 -15z"/>
<path d="M6080 845 c0 -8 2 -15 4 -15 2 0 11 -3 19 -6 9 -3 16 3 20 15 4 17 0
21 -19 21 -15 0 -24 -6 -24 -15z"/>
<path d="M6256 831 c-20 -21 -25 -31 -15 -31 25 0 51 25 48 44 -3 15 -9 13
-33 -13z"/>
<path d="M6219 825 c-3 -2 -23 -7 -45 -10 -21 -2 -45 -12 -51 -22 -17 -22 -13
-25 35 -17 28 4 46 14 57 30 14 22 16 32 4 19z"/>
<path d="M6012 802 c4 -21 78 -38 90 -20 12 19 10 28 -7 28 -8 0 -15 -6 -15
-12 0 -9 -3 -10 -8 -2 -4 6 -20 13 -35 16 -22 4 -27 2 -25 -10z"/>
<path d="M6427 768 l-49 -38 52 2 c28 1 47 4 41 6 -8 3 -8 9 0 23 23 43 4 46
-44 7z"/>
<path d="M5772 760 c2 -19 10 -26 32 -28 31 -4 28 1 -17 38 -17 13 -19 12 -15
-10z"/>
<path d="M0 360 l0 -360 360 0 360 0 0 360 0 360 -360 0 -360 0 0 -360z"/>
<path d="M730 365 l0 -355 355 0 355 0 0 355 0 355 -355 0 -355 0 0 -355z
m382 -242 c-6 -15 -16 -41 -22 -57 -6 -16 -13 -27 -15 -24 -4 4 5 38 30 107 3
8 8 11 12 8 3 -4 1 -19 -5 -34z m-171 -19 c-2 -32 1 -49 10 -55 11 -7 10 -9
-3 -9 -15 0 -18 9 -18 55 0 30 3 55 8 55 4 0 5 -21 3 -46z m106 38 c6 -4 11
-23 10 -42 -2 -30 -6 -35 -27 -37 -22 -1 -22 -1 -2 4 26 5 28 18 5 32 -10 6
-12 11 -5 11 18 0 15 20 -4 20 -8 0 -12 5 -9 10 7 12 16 12 32 2z m160 0 c6
-4 11 -23 10 -42 -2 -30 -6 -35 -27 -37 -22 -1 -22 -1 -2 4 26 5 28 18 5 32
-10 6 -12 11 -5 11 18 0 15 20 -4 20 -8 0 -12 5 -9 10 7 12 16 12 32 2z m53
-47 c0 -46 -3 -55 -17 -55 -14 0 -15 2 -4 9 9 6 12 23 10 55 -2 25 -1 46 3 46
5 0 8 -25 8 -55z m-263 -1 c-3 -3 -12 -4 -19 -1 -8 3 -5 6 6 6 11 1 17 -2 13
-5z m160 0 c-3 -3 -12 -4 -19 -1 -8 3 -5 6 6 6 11 1 17 -2 13 -5z"/>
<path d="M1450 365 l0 -355 355 0 355 0 0 355 0 355 -355 0 -355 0 0 -355z
m400 279 c93 -19 151 -167 94 -241 -13 -17 -16 -16 -49 19 -35 38 -47 89 -25
103 6 3 10 21 10 40 0 28 -4 33 -20 32 -15 -1 -20 -9 -21 -32 l-2 -30 -8 35
c-6 27 -7 21 -3 -23 l4 -59 -30 33 c-16 19 -30 44 -30 57 0 20 -4 23 -24 18
-40 -10 -42 22 -3 39 36 16 60 18 107 9z m-133 -76 c20 -19 23 -31 23 -105 0
-93 15 -113 22 -28 3 30 8 58 11 62 14 14 56 -40 59 -75 3 -35 28 -59 28 -28
0 15 2 15 25 0 14 -9 25 -20 25 -25 0 -17 -60 -39 -105 -39 -57 0 -96 19 -132
66 -33 44 -38 124 -10 167 21 33 24 33 54 5z m115 -445 c-6 -15 -16 -41 -22
-57 -6 -16 -13 -27 -15 -24 -4 4 5 38 30 107 3 8 8 11 12 8 3 -4 1 -19 -5 -34z
m-171 -19 c-2 -32 1 -49 10 -55 11 -7 10 -9 -3 -9 -15 0 -18 9 -18 55 0 30 3
55 8 55 4 0 5 -21 3 -46z m109 36 c13 -8 13 -13 -2 -39 -15 -28 -15 -30 0 -34
10 -3 5 -5 -10 -6 -31 -1 -36 10 -13 29 20 16 19 40 -1 40 -8 0 -12 5 -9 10 8
12 16 12 35 0z m157 2 c6 -4 11 -23 10 -42 -2 -30 -6 -35 -27 -37 -22 -1 -22
-1 -2 4 26 5 28 18 5 32 -10 6 -12 11 -5 11 18 0 15 20 -4 20 -8 0 -12 5 -9
10 7 12 16 12 32 2z m53 -47 c0 -46 -3 -55 -17 -55 -14 0 -15 2 -4 9 9 6 12
23 10 55 -2 25 -1 46 3 46 5 0 8 -25 8 -55z m-263 -1 c-3 -3 -12 -4 -19 -1 -8
3 -5 6 6 6 11 1 17 -2 13 -5z m160 0 c-3 -3 -12 -4 -19 -1 -8 3 -5 6 6 6 11 1
17 -2 13 -5z"/>
<path d="M2170 365 l0 -355 355 0 355 0 0 355 0 355 -355 0 -355 0 0 -355z
m382 -242 c-6 -15 -16 -41 -22 -57 -6 -16 -13 -27 -15 -24 -4 4 5 38 30 107 3
8 8 11 12 8 3 -4 1 -19 -5 -34z m-171 -19 c-2 -32 1 -49 10 -55 11 -7 10 -9
-3 -9 -15 0 -18 9 -18 55 0 30 3 55 8 55 4 0 5 -21 3 -46z m111 -4 c3 -37 2
-40 -22 -39 -14 0 -19 3 -12 6 6 2 12 18 12 34 0 22 -4 28 -12 23 -9 -5 -9 -3
1 9 19 23 28 14 33 -33z m155 42 c6 -4 11 -23 10 -42 -2 -30 -6 -35 -27 -37
-22 -1 -22 -1 -2 4 26 5 28 18 5 32 -10 6 -12 11 -5 11 18 0 15 20 -4 20 -8 0
-12 5 -9 10 7 12 16 12 32 2z m53 -47 c0 -46 -3 -55 -17 -55 -14 0 -15 2 -4 9
9 6 12 23 10 55 -2 25 -1 46 3 46 5 0 8 -25 8 -55z m-263 -1 c-3 -3 -12 -4
-19 -1 -8 3 -5 6 6 6 11 1 17 -2 13 -5z m160 0 c-3 -3 -12 -4 -19 -1 -8 3 -5
6 6 6 11 1 17 -2 13 -5z"/>
<path d="M2890 365 l0 -355 355 0 355 0 0 355 0 355 -355 0 -355 0 0 -355z
m545 105 c3 -5 -1 -10 -10 -10 -9 0 -13 5 -10 10 3 6 8 10 10 10 2 0 7 -4 10
-10z m5 -24 c0 -11 -19 -15 -25 -6 -3 5 1 10 9 10 9 0 16 -2 16 -4z m23 -23
c-7 -2 -9 -11 -6 -19 3 -8 1 -14 -4 -14 -20 0 -22 14 -6 32 9 10 19 15 22 12
3 -4 1 -9 -6 -11z m-43 -17 c0 -2 -7 -6 -15 -10 -8 -3 -15 -1 -15 4 0 6 7 10
15 10 8 0 15 -2 15 -4z m24 -25 c9 -14 -4 -41 -19 -41 -15 0 -28 27 -19 41 3
5 11 9 19 9 8 0 16 -4 19 -9z m4 -148 c-10 -2 -28 -2 -40 0 -13 2 -5 4 17 4
22 1 32 -1 23 -4z m-203 -124 c-25 -71 -25 -72 -30 -67 -4 4 5 38 30 107 3 8
8 12 10 9 3 -3 -2 -25 -10 -49z m-124 -5 c-2 -32 1 -49 10 -55 11 -7 10 -9 -3
-9 -15 0 -18 9 -18 55 0 30 3 55 8 55 4 0 5 -21 3 -46z m83 14 c7 -29 -10 -58
-34 -58 -20 0 -25 14 -21 55 3 39 44 41 55 3z m144 20 c5 -7 9 -26 8 -43 -1
-24 -6 -30 -26 -32 l-25 -3 25 11 c24 10 24 11 6 25 -11 8 -14 14 -8 14 7 0
12 5 12 10 0 6 -7 10 -16 10 -8 0 -12 5 -9 10 8 14 20 13 33 -2z m52 -43 c0
-37 -4 -55 -12 -55 -9 0 -13 18 -13 55 0 37 4 55 13 55 8 0 12 -18 12 -55z
m-107 -2 c-7 -2 -19 -2 -25 0 -7 3 -2 5 12 5 14 0 19 -2 13 -5z"/>
<path d="M3160 100 c0 -20 5 -30 15 -30 10 0 15 10 15 30 0 20 -5 30 -15 30
-10 0 -15 -10 -15 -30z"/>
<path d="M3621 706 c-7 -8 -11 -27 -9 -41 l3 -26 40 40 39 41 -31 0 c-17 0
-36 -6 -42 -14z"/>
<path d="M3668 669 c-46 -40 -58 -57 -58 -80 l0 -30 32 38 c18 21 38 41 45 46
7 4 18 14 26 21 8 8 31 24 53 35 l39 21 -40 0 c-34 0 -49 -8 -97 -51z"/>
<path d="M3805 697 c-70 -31 -110 -61 -156 -119 l-39 -50 0 -138 0 -138 39
-49 c35 -45 120 -110 164 -126 12 -5 17 -1 17 12 0 11 -15 25 -40 36 -47 21
-130 107 -149 155 -22 54 -26 155 -7 195 9 18 16 38 16 44 0 21 110 122 155
142 54 24 71 28 146 36 148 15 317 -96 360 -236 6 -21 7 -17 8 21 2 77 -71
161 -186 214 -45 21 -66 24 -165 24 -94 -1 -121 -4 -163 -23z"/>
<path d="M4170 701 c19 -11 61 -44 93 -74 57 -55 57 -55 57 -27 0 42 -97 120
-148 120 l-37 -1 35 -18z"/>
<path d="M4276 686 c35 -31 39 -32 42 -14 6 35 -6 48 -44 48 l-37 0 39 -34z"/>
<path d="M5050 365 l0 -355 355 0 355 0 0 355 0 355 -355 0 -355 0 0 -355z
m355 -256 c-25 -71 -25 -72 -30 -67 -4 4 5 38 30 107 3 8 8 12 10 9 3 -3 -2
-25 -10 -49z m-124 -5 c-2 -32 1 -49 10 -55 11 -7 10 -9 -3 -9 -15 0 -18 9
-18 55 0 30 3 55 8 55 4 0 5 -21 3 -46z m66 38 c6 -4 11 -23 10 -42 -2 -29 -6
-35 -27 -37 l-25 -3 25 11 c24 10 24 11 6 25 -11 8 -14 14 -8 14 7 0 12 5 12
10 0 6 -7 10 -16 10 -8 0 -12 5 -9 10 7 12 16 12 32 2z m160 0 c6 -4 11 -23
10 -42 -2 -29 -6 -35 -27 -37 l-25 -3 25 11 c24 10 24 11 6 25 -11 8 -14 14
-8 14 7 0 12 5 12 10 0 6 -7 10 -16 10 -8 0 -12 5 -9 10 7 12 16 12 32 2z m53
-47 c0 -37 -4 -55 -12 -55 -9 0 -13 18 -13 55 0 37 4 55 13 55 8 0 12 -18 12
-55z m-107 -2 c-7 -2 -19 -2 -25 0 -7 3 -2 5 12 5 14 0 19 -2 13 -5z"/>
<path d="M5770 360 l0 -360 360 0 360 0 0 360 0 360 -360 0 -360 0 0 -360z"/>
<path d="M4336 679 c-3 -17 -6 -177 -6 -355 l0 -324 355 0 355 0 0 355 0 355
-349 0 -348 0 -7 -31z"/>
<path d="M3846 660 c-99 -38 -161 -97 -190 -183 -35 -103 -11 -200 68 -274 28
-27 63 -54 79 -60 24 -11 27 -11 27 7 0 11 -7 20 -15 20 -23 0 -116 103 -131
146 -18 51 -17 90 2 146 28 85 117 161 204 176 90 16 182 3 239 -32 94 -60
130 -124 131 -230 0 -81 -23 -138 -76 -192 -32 -31 -45 -64 -26 -64 14 0 67
53 93 95 14 22 33 64 42 94 16 50 16 57 0 125 -9 39 -21 73 -25 74 -4 2 -8 9
-8 15 -1 16 -47 66 -92 100 -72 55 -227 73 -322 37z"/>
<path d="M3840 599 c-108 -59 -140 -106 -140 -202 0 -80 18 -123 69 -170 49
-44 63 -51 129 -67 101 -24 224 31 269 121 65 128 -11 265 -167 300 -43 10
-130 -14 -178 -50 -44 -32 -72 -89 -72 -144 0 -58 49 -132 105 -161 62 -32
139 -28 194 9 88 59 113 152 60 224 -75 104 -213 100 -286 -8 -37 -54 -26
-107 32 -161 23 -22 36 -25 97 -25 66 0 71 2 99 32 38 44 46 77 25 120 -11 24
-30 40 -61 54 -53 23 -83 18 -125 -21 -51 -48 -34 -117 34 -140 81 -26 144 59
80 109 -33 26 -37 26 -69 -2 -18 -15 -24 -28 -20 -40 9 -21 45 -23 45 -2 0 8
7 15 15 15 25 0 18 -39 -9 -46 -36 -9 -66 12 -66 46 0 58 76 80 124 35 29 -27
31 -38 16 -82 -13 -35 -46 -53 -99 -53 -32 0 -45 6 -70 35 -42 48 -42 92 1
133 56 56 163 50 203 -11 47 -72 34 -134 -39 -180 -73 -46 -165 -31 -221 35
-20 24 -25 40 -25 86 0 62 21 95 85 137 47 31 148 27 201 -7 85 -55 106 -159
47 -241 -103 -145 -342 -100 -387 73 -9 35 -11 61 -5 72 5 9 9 24 9 33 0 24
68 93 114 117 50 26 141 34 192 18 95 -31 164 -119 164 -209 0 -57 -25 -128
-57 -163 -14 -16 -110 -66 -155 -81 -21 -7 -24 -27 -5 -27 6 0 30 5 52 11 34
10 37 13 20 20 -14 5 -16 8 -5 9 8 2 19 2 24 1 24 -5 58 12 86 42 131 136 84
348 -93 422 -21 9 -66 15 -109 15 -62 0 -81 -5 -128 -31z"/>
<path d="M4312 306 c-2 -31 -48 -117 -81 -153 -11 -12 -34 -30 -51 -39 -19
-12 -30 -26 -30 -41 l0 -22 34 20 c44 25 124 113 132 143 3 12 4 45 1 72 -2
27 -4 36 -5 20z"/>
<path d="M3610 189 c0 -39 63 -100 152 -146 50 -25 61 -27 183 -27 109 -1 135
2 158 17 15 9 27 24 27 32 0 12 -6 11 -37 -2 -53 -22 -256 -28 -274 -7 -6 8
-18 14 -25 14 -24 0 -97 51 -141 99 -41 43 -43 44 -43 20z"/>
<path d="M4286 142 c-29 -43 -59 -65 -144 -108 l-47 -24 43 0 c75 0 187 91
180 147 -3 26 -3 26 -32 -15z"/>
<path d="M3850 136 c0 -13 20 -26 41 -26 5 0 9 7 9 16 0 8 -4 13 -9 9 -5 -3
-12 -1 -16 5 -9 15 -25 12 -25 -4z"/>
<path d="M3610 109 c0 -20 8 -34 28 -46 15 -10 32 -24 38 -32 6 -7 35 -16 65
-18 l54 -4 -50 25 c-27 14 -69 43 -92 64 l-43 40 0 -29z"/>
<path d="M3910 126 c0 -18 42 -29 52 -13 13 21 9 27 -22 27 -19 0 -30 -5 -30
-14z"/>
<path d="M4111 126 c-11 -13 -11 -20 -3 -28 8 -8 13 -7 18 5 10 27 0 41 -15
23z"/>
<path d="M3850 83 c0 -17 15 -24 34 -17 25 10 19 29 -9 29 -14 0 -25 -5 -25
-12z"/>
<path d="M4008 93 c-31 -4 -58 -27 -45 -40 9 -8 121 23 125 35 4 12 -5 13 -80
5z"/>
<path d="M3910 80 c0 -5 6 -10 13 -10 8 0 7 -4 -3 -11 -12 -8 -12 -10 5 -7 28
4 33 38 6 38 -12 0 -21 -4 -21 -10z"/>
<path d="M4267 48 l-49 -38 52 2 c28 1 47 4 41 6 -8 3 -8 9 0 23 23 43 4 46
-44 7z"/>
<path d="M3612 40 c2 -19 10 -26 32 -28 31 -4 28 1 -17 38 -17 13 -19 12 -15
-10z"/>
</g>
</svg>
